<svg width="252" height="245" viewBox="0 0 252 245" fill="none" xmlns="http://www.w3.org/2000/svg">
<path d="M228.4 168.6L228.8 173.1L227.1 177.3L224.3 180.4L220.4 183.9L217.9 185.9L216.7 188.9L217.6 190.2L218.4 191.6L218.2 192.3L220.2 193.3L222.4 194.7L222.7 197.4L223.2 201.6L224.1 204C224.1 204 223.4 207.1 223.2 207.3C223 207.6 222.6 210.8 222.6 210.8L223.4 212.6L223.1 214.1L219.5 214.8C219.5 214.8 214.2 215.9 214.1 216.2C213.9 216.5 212.7 217.4 212.7 217.4L211.8 214L215 203.8L216.7 201.3L218.2 200.4L219.6 198.8L219.4 196.4L217.4 193L215.7 192.1L212.7 191.5L209.4 190.7L207 191.6L203.8 191.9L200 193H197.6L194.5 195.6L192.3 197L189.8 199C189.8 199 188.8 199.7 188.5 199.8C188.2 199.9 184.8 199.9 184.8 199.9L182.7 201L179.4 203L178.3 204.6L175.4 206.9L172.5 209.5L169.7 211.6V212.9L169.3 214.6L165 215.7L162.2 216.7L159.1 219.3L154.4 219.9L145.5 220.4H137.8L136.2 220V217.4L135.5 216.8L133.7 215.6L134.7 213L138.4 209.9L148.2 209.2L155.7 207L162.8 206.7L166.4 204.9L167.3 203.7L167.2 202.2L158.3 200.2L154.1 199.2L152.7 196L150 192.2L146 192.8L140.2 198.7L136.3 204.3L125.2 207.9L121.2 207.1L119.3 206.4L114.7 208.4L112.8 211.1L107.5 211L103.3 207.5L100.5 207.4L94.8 208.8L90.8 207.6C90.8 207.6 87.7 205.6 87.7 205.3C87.7 205 88.6 201 88.6 201L92.5 198L97.9 195.9C97.9 195.9 104.7 193 105 192.6C105.3 192.2 105.7 189.7 105.7 189.7L103.5 189.5L99.9 190.3L93.3 195.1L83.7 202.7L75.4 206.8L72.6 205.8L70.3 201.7L70.4 196.3L73.5 193.2L75 190.1L74.1 187.4L76.2 182.8L81.9 176.6L90.4 171L108 167.9L119.7 166.4L134.7 163.7L146.4 160.9L154.7 159.3L156.2 156.8L156.5 155.3L155.1 153.8L150.1 154.2L136.8 158.5L121.6 158.9L110.8 158.8L103.3 158.5L98.9 162.5L86.4 165.6L77.1 165.1L71.5 176.8L62 184.5L54 191.2L56.1 192.8C56.1 192.8 59.1 193.1 59.2 193.3C59.3 193.5 60.3 194.7 59.7 195.8C59.1 196.8 54 203 54 203L46 208.9L40.3 213.8L35.8 215.2L34.8 219.6L28.6 227.5L24.8 229.3L17.2 229.9L11.8 232.5C11.8 232.5 8.3 233.4 7.5 233.9C6.7 234.4 4.5 235.5 4.5 235.5L1.89999 239C1.89999 239 2.70001 240.6 3.20001 240.8C3.70001 241 6.89999 242.8 6.89999 242.8L7.5 244.7H6.60001L4 242.3L1.89999 241.2C1.89999 241.2 1 239.7 1 239.4C1 239.1 2.89999 233.5 2.89999 233.5L5.60001 228.9L8.5 226.6L11.7 224.2L12.1 222.2L13 219.1L16.9 216.7C16.9 216.7 22.3 214.7 22.5 214.5C22.8 214.3 25.4 211.7 25.4 211.7L25.8 208.6C25.8 208.6 25.5 206 25.8 205.7C26.1 205.4 28.9 202.8 29.1 202.6C29.4 202.4 31.7 200.6 31.7 200.6L32.5 198.8V197.2L35.8 194.1L36.6 192.8L35.7 190.2L36 187.6L39 186L46 184.2L54.9 177.9L56.3 175.3L53.5 171.8C53.5 171.8 51.3 170.8 51.4 170.5C51.5 170.2 55.1 166.8 55.1 166.8L58.7 164.8L61.5 161.9L58.3 159.9L57.9 157L58.5 152L62 148.3L67 145.7L70.8 142.8L73.5 140.5L72.5 138.2L71.9 135.1L81.7 127.5C81.7 127.5 84.6 124.4 84.8 124.3C85.1 124.2 92.1 120 92.1 120L96.5 117.2L97.2 111.2C97.2 111.2 99.8 105 100.7 103.9C101.6 102.8 104.1 95.6 104.1 95.6L101.3 92.5L90 87.6L87.5 84.7C87.5 84.7 87.9 82 88.3 81.4C88.6 80.8 92.1 78.7 92.1 78.7C92.1 78.7 97 77.9 97 77.3C97 76.7 97.5 73.8 97.5 73.8C97.5 73.8 96.6 72.9 96.9 72.6C97.2 72.3 98.3 71.2 98.8 71.2C99.3 71.2 100.7 70.8 101.4 70.3C102.1 69.8 102.5 69.2 102.5 67.9C102.5 66.6 101.4 64.1 101.4 64.1C101.4 64.1 100.6 63.5 101.1 62.7C101.6 61.8 105.4 59.3 105.7 58.9C106 58.5 111.6 53.8 111.8 53.5C112.1 53.2 116.2 50.8 116.3 50.2C116.4 49.6 116.5 46 116.4 45.7C116.3 45.4 116.1 42.7 116.2 42.5C116.3 42.2 117.1 40.2 117.7 39.7C118.4 39.2 125.4 35.2 125.4 35.2L137.5 29.2C137.5 29.2 141.4 24.3 141.4 23.8C141.4 23.4 148.7 20.1 148.9 19.9C149.1 19.6 157.5 13.4 157.5 13.4L164.6 9.29999L175.9 4.5C175.9 4.5 180.5 1.20001 181.3 1.20001C182.1 1.20001 190.2 3.20001 190.2 3.20001L195.6 13.2C195.6 13.2 194.3 19.3 192.5 20.9C190.7 22.4 189.4 26 188.2 27C186.9 28 183.3 37.2 183.3 38V45.9L188.2 51L199.9 57.4C199.9 57.4 200.9 60.2 201.2 62.3C201.5 64.3 203.8 72.3 203.8 72.3C203.8 72.3 205.8 76.4 210.2 77.4C214.5 78.4 220.7 78.9 220.7 78.9L232.2 75.3L238.8 75L246.7 79.9C246.7 79.9 251.6 89.6 251.6 91.1C251.6 92.6 251.3 99.8 251.3 99.8C251.3 99.8 239.8 110.8 238.8 112.8C237.8 114.8 237 127.4 237 127.4C237 127.4 240.3 135.8 240.6 137.1C240.9 138.4 242.6 147.1 242.6 147.1C242.6 147.1 243.1 153 243.1 154C243.1 155 239 159.6 239 159.6C239 159.6 232.9 162.9 232.1 163.4C231.6 163.7 229.9 165.8 228.8 167.3" stroke="white" stroke-width="2" stroke-miterlimit="10"/>
</svg>
