<svg id='cluster_4' width="225" height="177" viewBox="0 0 225 177" fill="none" xmlns="http://www.w3.org/2000/svg">
<path id='path_4' d="M134.2 167.8L152.6 174.8L162.1 176.7H170.6L177.1 173.3L179.5 167.9V163.8L181.9 159.4L187.2 155.7L193.2 151.4L200.3 143.7L205.7 136.7L209.3 128.4L210.7 122.3L213.4 117L218.8 110.2L220.8 108.5L223 104.9L225.3 100.7L225.6 97.7L225.2 94.6L221.9 92.4L220.8 92.7C220.8 92.7 220.1 93.4 220 93.7C219.9 94 218.4 96.4 218.4 96.4L217.6 97.9L215.9 99.5L210.9 100.6L208.3 98.8L206.8 97L207.7 96L210 94L210.9 92.1C210.9 92.1 209.8 90.5 209.5 90.4C209.2 90.3 207.1 89.3 207.1 89.1C207 88.9 207.3 85.8 207.3 85.8L209.5 80.6C209.5 80.6 211.5 76.1 212.1 75.4C212.6 74.6 217.4 67 217.4 67L218.2 63L220.7 58.8L223.3 54.3L222 52.3L217 48.9L212.1 47L207.2 46.6C207.2 46.6 204 48.3 203.8 49.2C203.6 50.1 202.2 52.5 202.2 52.9C202.2 53.3 202.5 56.2 202.9 56.7C203.3 57.3 204.2 57.8 204.2 57.8L204.8 55.4L206.6 52.9L211.3 52.5L213.8 53.7C213.8 53.7 216 54.7 216.2 55.6C216.4 56.5 215.9 59.2 215.9 59.2C215.9 59.2 213.6 61.4 213.1 61.8C212.6 62.2 209.2 64.2 209.2 64.2C209.2 64.2 206.8 64.1 206.6 64.4C206.4 64.7 205.5 65.3 205.5 66.1C205.5 66.9 206.2 69 206.2 69L205.4 71.5L202.5 72.6L202 74.2L203 77.2L200.3 80.3C200.3 80.3 195.4 82.9 195.3 83.2C195.2 83.5 191.2 85.6 191.2 85.6L180 86.5L176.5 85L176.2 83.1L177.6 79.5C177.6 79.5 177.3 75.9 177.7 75.4C178 74.9 178.7 72.9 178.7 72.9C178.7 72.9 178 70.7 177.2 70.2C176.4 69.6 173.4 67.9 173 67.6C172.6 67.3 172 65.9 172 65.9L172.3 63.1C172.3 63.1 172 62.4 171.4 62.5C170.8 62.6 169.1 63.4 169.1 63.4L167.4 63.9L164.8 62.7L163.8 61V59.1L164.9 56.4L166.7 56.2L170.1 54C170.1 54 171.2 53.1 171.4 53.1C171.6 53.1 173.9 52.5 173.9 52.5C173.9 52.5 174.5 51.7 174.5 51.4C174.5 51.1 174.6 48.8 174.6 48.8L176.1 46.6L177.6 45.5L179.6 45L179.3 44C179.3 44 175.2 44.8 174.8 45C174.4 45.3 170.1 45.8 170.1 45.8L165.8 47.2L161.5 48.9C161.5 48.9 159.5 48.3 159.3 48.3C159.1 48.3 157 48.2 157 48.2C157 48.2 155.9 49 155.5 49.7C155.1 50.4 153.3 53.2 153.3 53.2L150.8 54.3L147 54.7L140.9 54.5L137.6 53.2L135.6 51.5L137.3 48L136.7 45.8L132 43.4C132 43.4 131.9 42.1 132 41C132.1 39.9 132.4 33.8 132.4 33.8L133.7 31.7C133.7 31.7 136.3 31.2 136.5 31.2C136.7 31.2 139.9 29.3 139.9 29.3L141.3 25.4L144.2 22.1L143 19.2L141.8 15.8L143.6 10.7C143.6 10.7 145.5 8.6 145.7 8.5C146 8.4 147.5 6.99999 147.6 6.79999C147.7 6.59999 147.3 4.09998 147.3 4.09998L143.7 4.59998L138.9 4.5C138.9 4.5 137.1 4.09998 136.6 4.09998C136.1 4.09998 130.9 2.40002 130.9 2.40002C130.9 2.40002 128.2 1.09998 127.5 1.09998C126.9 1.19998 121.7 3.29999 121.7 3.29999L110 8.5L103.7 12.3L93.7 14.3L83.2 13.5C83.2 13.5 79.4 14.1 79 14.3C78.6 14.4 70.4 17.7 70.4 17.7L65.3 19.4L57.6 22.8C57.6 22.8 51.3 25.1 51 25.1C50.8 25.1 41.6 26.2 36.7 24.2C34.7 23.4 35.7 21.3 34.9 20C33.8 18.2 31.5 17.4 29.6 18.2L22.1 21.2L7.50001 23.5C5.40001 23.8 3.7 25.4 3.3 27.5L2.50001 30.9L2.10001 32.5C1.50001 35.1 3.10002 37.7 5.70002 38.3L7.70002 38.8L17.2 35.3C17.2 35.3 25 33.3 29.7 32.5C36.4 31.4 44.6 30.1 44.9 30.2C45.4 30.3 47.5 32.8 47.3 33.3C47.2 33.8 46.9 36.6 46.9 36.6C46.9 36.6 46.1 37.1 49.2 36.2C52.3 35.3 57 31 57 31L60.8 32.1L62.8 36.6L64.5 40L72.4 39.9L76.1 39.4L78.1 41.1H82.2L83.5 41.6L84 44.2L85.9 44.8L91.5 44.2L97.9 44.1L102.4 43.7C102.4 43.7 103.4 45.1 103.4 45.9C103.4 46.7 99.2 49.6 99.2 49.6H92.1L88.3 52.3L83.8 57.5L83.4 64.6C83.4 64.6 87.5 65.9 88 65.6C88.5 65.3 90.2 66.4 90.2 66.4L91.3 67.9L89.8 69.3L91.1 73.9C91.1 73.9 88.9 76.8 89.3 77C89.7 77.1 92.1 76.4 92.1 76.4L94.3 72.8C94.3 72.8 97.2 70.9 97.6 70.9C98 70.9 98.9 72.7 98.9 72.7C98.9 72.7 98.6 74.9 99.4 74.9C100.2 74.9 101.7 75.5 101.7 75.5L105 75.2L105.6 77.1L104.6 79.3L106.6 80.7L110.9 82L111.4 84.9L113.7 87.1L116.3 86.5L118.9 83.8L125.3 82.3H128.5C128.9 82.3 130.3 84.5 130.3 84.5L124.6 87.8L124.3 91C124.3 91 126.2 92.5 126.9 92.5C127.6 92.5 130 92.5 130.6 92.8C131.2 93.1 133 94.7 133 94.7C133 94.7 131 97.3 131.8 98.4C132.6 99.5 133.5 100.8 134 101C134.5 101.1 137.2 98.1 137.2 98.1L142.9 94.7L148.9 92C148.9 92 152.9 92.6 152.9 93.1C152.9 93.6 152.3 96.8 152.3 96.8C152.3 96.8 145 99.9 144.4 100.2C143.8 100.6 138.4 104.8 138.4 104.8C138.4 104.8 138.3 106.5 138.8 106.6C139.3 106.7 141.7 105.7 141.7 105.7L145.1 102.4L147.8 102.8L148.8 105.2C148.8 105.2 143.8 108 143.8 108.8C143.8 109.6 143.3 111.5 143.7 112.1C144.1 112.7 147.8 115.8 147.8 115.8L149.7 118.1L151.4 120.1L153.7 119.2L160.2 116.9H164.2L165.1 120.2C165.1 120.2 160.1 124.7 159.4 124.9C158.7 125.1 158.3 127.5 158.3 127.5L161.2 128.6L162.2 130.9L164.6 133.2L165.2 136.4C165.2 136.4 163.7 141 163.3 141.8C162.9 142.6 158.4 146.1 158.4 146.1L150.9 145.5L151.4 150.4L154 157.2L150.2 159.4C150.2 159.4 145.6 159.1 145 159.3C144.4 159.4 136.6 163.3 136.6 163.3L134.2 167.8Z" stroke="white" stroke-width="2" stroke-miterlimit="10"/>
</svg>
