<svg id='cluster_2' width="356" height="325" viewBox="0 0 356 325" fill="none" xmlns="http://www.w3.org/2000/svg">
<path id='path_2' d="M113 59.9L103.3 73.7L126.8 81.4L138.5 85V94.2L115.5 114.1L96.6 133.5L82.8 140.6L79.7 154.4C79.7 154.4 69 157 66.2 158.5C63.4 160 59.8 166.2 59.8 166.2C59.8 166.2 62.9 168.2 66.2 168.2C69.5 168.2 82.8 162.6 82.8 162.6C80.3 163.6 75.7 174.3 75.7 174.3L63.4 177.4L48.6 174.8L36.3 167.7L8.00001 174.5L12.3 182.2L13 187.9L10.8 192.8L5.00001 200L2.09999 206.1C2.09999 206.1 1.00003 211.7 1.20003 212.1C1.40003 212.4 3.20003 217.6 3.20003 217.6L5.90004 220.8L16.6 226.1L18.6 231.8L20.1 239.4L24.4 244.7L33.6 247.7L40 244.9L45.4 243.5L53.4 243.4L58.2 245.7L63 248.7L67.9 255.9L69.4 262.1L69.2 269.4L64.5 277.4L58.1 282.1L55.2 288.4L55.1 294.1L57.1 303.1L60.4 313.2L60.1 323.3C60.1 323.3 65.9 321.6 66.1 321.3C66.3 321 70.4 317 70.4 317L73.4 307.8L77.7 305.8L82.8 303.4L88.1 300L92 296.2C92 296.2 92.1 291.3 91.8 290.4C91.5 289.5 91.2 286.8 91.2 286.8L96.4 283L100.6 281L103.7 282.1L108.6 282.8C108.6 282.8 110 280.8 110 280.5C110 280.2 114.8 276.5 114.8 276.5C114.8 276.5 118.6 275 118.9 275C119.2 275 124.4 272.4 124.4 272.4L123 269.5L121.6 268.3L123.1 266.6C123.1 266.6 124 265.6 124.5 265.5C124.9 265.4 128.7 264.9 128.7 264.9L130.7 265.2L131.9 263.3C131.9 263.3 130.5 261.3 130.1 261.1C129.7 260.9 129.8 259.1 129.8 259.1C129.8 259.1 132.6 257 132.8 256.7C133 256.4 133.2 255.3 133.2 254.8V252.3C133.2 252.3 135.5 250.9 135.8 250.8C136.1 250.6 136.7 248.8 136.7 248.6V244.7L138.9 240.6L140.3 238.6L142.2 238.3L143.1 235.6V233.1L146 232.2L148.2 230.8C148.2 230.8 148.3 229.2 148.2 229.2C148.1 229.2 145.5 228.7 145.5 228.7L145.4 226.2L149.1 222.2L151.7 220.8C151.7 220.8 154 220.7 154.3 220.8C154.6 220.9 157.5 222.9 157.5 222.9L158.1 222L156 219.4L157.2 215.7L161 212.8L168.1 204.4L175.8 196.1L181 191.5C181 191.5 185.3 189.6 185.5 189.6C185.7 189.6 188.8 187.4 188.8 187.4L187.2 183.9L187.5 182.9C187.5 182.9 188 181.5 188.8 181.5C189.6 181.5 191.8 181.8 192 181.5C192.3 181.2 195.3 178.5 195.6 178.3C195.9 178 198.2 177 198.5 176.9C198.8 176.7 199.4 174.9 199.4 174.9C199.4 174.9 200 172.3 200.8 172.3C201.6 172.2 202 171.4 202 171.4L199.5 168.8L197.5 167.2L199.2 164L218.8 156.2L223.2 156.4L225.6 157.4L228.7 153.5C228.7 153.5 229.2 150.3 229.7 149.8C230.2 149.3 231.9 148.1 231.9 148.1L235 147.9L240.3 149.4L246.6 147L250 143.3L253.1 138.9L255.8 136.9L260.6 137.6C260.6 137.6 263.5 137.9 264.5 137.9C265.5 137.9 266.7 137.6 265.9 136.7C265 135.8 262 133.6 262 133.6L261.5 129.5L263.2 126.6L281.2 121.8L294.3 116.9C294.3 116.9 300.1 117.8 300.6 117.6C301.1 117.4 305.5 114 305.5 114L308.1 109.9L310.1 106L313.2 104.4C313.2 104.4 313.5 102.9 314.1 102.6C314.7 102.3 325 101.8 325 101.8V99.7L321.2 96.6C321.2 96.6 320.8 92.5 321.6 92.3C322.5 92.1 326.9 91.8 327.4 91.1C327.9 90.4 332.7 86.8 332.7 86.8L333.7 82.8L334.8 79.9C334.8 79.9 336.5 80 336.6 79.6C336.7 79.2 336.9 76.7 336.6 76.5C336.3 76.3 335.3 76.3 335.3 75.7C335.3 75.1 336.3 72.7 336.7 72.6C337.2 72.4 338.8 71.2 338.8 71.2C338.8 71.2 337.4 69.5 336.8 69.4C336.3 69.3 334.6 68.1 334.6 68.1L332.3 65C332.3 65 332.9 63.9 333.2 63.7C333.5 63.5 340.5 61.2 341.4 60.6C342.3 60 349 56.7 349 56.7L353.5 53.6C353.5 53.6 354.9 50.4 354.9 50.1V46.6H350.1L347.3 44.3L341.3 43L321 42.4L314.4 41.9L309.4 39.3L308.3 35.5L308 30.7L300.4 25.9L289.9 23.9L285.5 20.7L278.7 14.6L269.2 1.7L264.3 2.7L256 6.5L253.6 9.6L251.6 13.6C251.6 13.6 233.9 20.1 233.6 20.1C233.3 20.1 227.7 23.2 227.6 23.8C227.5 24.4 225.7 29.4 225.7 29.4L218 31.8L207.3 33.7L204.2 38L197.1 39.6L181.3 43.4L164.3 42.5L147.1 47.2L132.5 48.7L116.3 55.6L113 59.9Z" stroke="white" stroke-width="2" stroke-miterlimit="10"/>
</svg>
