<svg width="364" height="214" viewBox="0 0 364 214" fill="none" xmlns="http://www.w3.org/2000/svg">
<path d="M309.5 129.7C309.5 129.7 320.9 134.5 321.4 134.6C321.9 134.8 333.1 138.2 333.1 138.2H347.2L349.2 139.4L353.6 141.4L358.9 144.3L361.8 151.8C361.8 151.8 360.9 151.6 360.1 152.5C359.2 153.4 356.5 153.5 356.5 153.5C356.5 153.5 348.5 146.7 348.5 146.2C348.5 145.7 345.8 144.2 345.8 144.2L337.8 147.6L335.6 150.3L331.2 152.5L329.8 155.1L326.2 156.5L322.8 159.2C322.8 159.2 320.4 159 320.4 157.5C320.4 156 320.2 150.4 320.2 150.4L316.1 147.2C316.1 147.2 311.2 148.4 310.7 148.6C310.2 148.8 305.1 155.9 305.1 155.9L304.1 163.2V166.1L300 170V176.1V187.2L296.3 193.7L294.9 198.1L293 202.9C293 202.9 288.6 206.1 288.1 206.5C287.6 206.8 283.5 208 283.5 208L289.5 202.7C289.5 202.7 292.7 197.4 292.7 196.9C292.7 196.4 292 192.8 292 192.3C292 191.8 290.7 189.9 290.7 189.9L285.1 192.6L280.7 191.9C280.7 191.9 281.7 189.7 282.2 189.7C282.7 189.7 285.4 188.2 285.4 188.2L287.6 185.5L285 181.8L284.1 177.5C284.1 177.5 288.7 176.1 289.5 176.1C290.4 176.1 291.4 175.9 291.4 175.9C291.4 175.9 290.8 172 290.6 171.6C290.4 171.3 289.7 168.8 289.7 168.8C289.7 168.8 292.4 169.2 292.9 168.8C293.4 168.4 295.1 166.2 295.1 166.2L293.4 160.6L289.3 155.7L279.1 151.3C279.1 151.3 270.1 151.5 269.7 152.7C269.4 153.9 266.8 156.8 266.8 156.8L265.9 160.5L260.1 166.3L252.1 172.8L249.7 177.7C249.7 177.7 249.9 182.6 249.2 183.3C248.5 184 244.1 187.9 244.1 187.9L237.1 187.2L229.4 191.8L225.5 196.6L224.1 202L211.2 208L204.2 209H201.6L197 211.7C197 211.7 195.6 208.6 195.6 208V201L189 197.8L183.4 196.3L178.5 191.4C178.5 191.4 174.2 188.7 173.7 188.7C173.2 188.7 167.2 190.9 167.2 190.9L161.4 195.5L158.5 194L155.4 185.8V180.7L150.8 178.7L142.6 181.8L138.3 177.4L129.8 174.5L116.5 175.9L110.4 173.9L106.5 170.9L99.9 172.9C99.9 172.9 100.6 176.5 99.9 177.2C99.2 177.9 98.7 179.9 98 179.9C97.3 179.9 95.4 175.6 95.4 175.6L94.2 172.2L82.5 176.1L75.2 183.1L69.9 188.9L60.9 195.7L52.4 202.2L40.7 204.8L34.1 200.4L23.9 199.7L14.2 199.9L8.60001 197.7L6 194.8L1.60001 192.8L2.60001 189.6L8.7 187.6L9.7 189.5L10 194.4L22.9 189.6L27.2 184.7L25.8 179.4L19.5 178.9L19.3 177.9L21.2 175.3L21.7 172.6L14.4 172.3C14.4 172.3 14.2 169.2 14.2 168.7C14.2 168.2 17.4 164.6 17.4 164.6L27.4 159.2L31 156.3L30.3 154.1L26.2 153.1L25.9 150.2L29.8 149.3C29.8 149.3 31 147.8 31.2 147.3C31.4 146.8 33.4 144.1 33.4 144.1C33.4 144.1 37 144.3 37.8 145C38.7 145.7 41.5 147.6 42.6 147.6C43.6 147.6 54.5 146.7 54.5 146.7L59.8 144.1C59.8 144.1 69.2 144.1 69.7 145.1C70.2 146.1 71.4 149.2 72.1 149.7C72.8 150.2 75.5 149.9 75.5 149.9C75.5 149.9 84 146.8 84.7 147C85.4 147.2 89.5 151.4 89.5 151.4L93.9 154.6L108.2 151.4C108.2 151.4 117.2 148.5 117.9 148.3C118.6 148.1 129.3 139.1 129.3 139.1L132.4 131.6L131.5 125.1C131.5 125.1 133 121.2 133 120.7C133 120.2 127.4 117.5 125.3 118.7C123.3 119.9 120.9 122.1 118.2 123.8C115.5 125.5 109.5 127.9 109.5 127.9C109.5 127.9 108.5 129.9 108.6 131.6C108.8 133.3 108.3 135.5 107.1 136.2C105.9 136.9 103 136.2 103 136.2L102.7 130.9C102.7 130.9 106.8 126.5 107.3 126.1C107.8 125.8 107.6 121.5 107 121.5C106.4 121.5 105.3 121.7 105 120.8C104.7 119.9 104.5 116.7 104.5 116.7C104.5 116.7 103.1 112.4 97.9 115.3C92.6 118.2 87.2 122.6 86 123.8C84.8 125 84.5 127.9 84.5 127.9C84.5 127.9 87.9 129.4 87.9 130.5C87.9 131.5 86.7 133.9 86.7 133.9C86.7 133.9 82.1 131.2 81.4 130.8C80.7 130.5 73.4 127.7 73.4 127.7L71.9 121.9C71.9 121.9 73.6 117.3 73.6 115.6C73.6 113.9 73.3 109.6 73.3 109.6C73.3 109.6 78.2 104 79.1 103.5C80 103 82.8 100.8 84.4 100.3C85.9 99.8 94.3 94.2 94.3 94.2L95.3 87.9L93.4 83.6C93.4 83.6 91.2 80.7 91.2 80.2C91.2 79.7 95.3 77.8 95.8 77.8C96.3 77.8 101.2 73 101.2 73C101.2 73 106.5 70.3 107.2 70.4C107.9 70.6 108.9 71.1 109.4 73.1C109.9 75.1 109.9 78.7 109.9 78.7L109.2 84.8L111.8 90.1L124.2 86.9L135.6 82.3L138.7 77.2L137.1 72.9L131.4 70.3C131.4 70.3 129.9 68.6 129.9 68.1C129.9 67.6 130.6 64.2 130.6 64.2L127.4 60.6C127.4 60.6 123.8 62.5 123.3 61.6C122.8 60.7 121.6 57.7 121.6 57.7L125.2 50L122.3 43.4H114.5C114.5 43.4 111.6 42.2 113.3 41.5C115 40.8 116.2 40.3 116.9 40.3C117.6 40.3 118.6 37.9 119.1 37.9C119.6 37.9 123.4 37.2 124.2 37.9C125.1 38.6 132.4 39.3 132.4 39.3L137.3 35.6L136.5 30.5C136.5 30.5 134.8 29 129 29.1C123.2 29.3 122.2 29.1 122.2 29.1H118.3L114.6 23.5C114.6 23.5 116.6 21.1 117.3 20.4C118 19.7 123.1 18.5 123.8 18.5C124.5 18.5 130.3 14.6 131.3 14.2C132.3 13.9 138.1 11.1 138.1 11.1C138.1 11.1 141.2 6.30001 141.2 5.00001C141.2 3.70001 142.7 1.40003 142.7 1.40003C142.7 1.40003 145.9 0.199996 147.1 2.8C148.3 5.4 149.5 8.09998 149.5 8.09998C149.5 8.09998 152.1 9.8 152.1 10.8C152.1 11.8 150.9 15.9 150.9 15.9L156.7 21.7L155.3 26.3L160.1 28L177.6 19.3L183.2 16.4L188.5 19.1L202.3 21.1C202.3 21.1 211.5 16.7 212 16.7C212.5 16.7 223.1 15.3 223.6 15.3C224.1 15.3 239.6 15.8 239.6 15.8C239.6 15.8 246.4 19.4 246.4 19.9C246.4 20.4 246.4 21.3 245.9 23.8C245.4 26.4 245.2 31.5 245.2 31.5C245.2 31.5 248.8 33.5 251 33.5C253.2 33.5 257.6 35 257.6 35C257.6 35 259 37 258.3 40.8C257.6 44.6 256.4 45.2 258.3 46.4C260.2 47.6 263.6 48.8 264.1 50.1C264.6 51.5 266.7 54.2 266.7 54.2L270.3 51.8L275.9 46.4C275.9 46.4 277.4 50.1 278.1 51.8C278.8 53.5 284.1 56.2 284.1 56.2C284.1 56.2 288.4 58.2 288.5 59.6C288.7 61 285.8 62.7 288.8 63.7C291.9 64.7 295.9 66.8 295.9 66.8L298.5 70.2L300.7 76L297.3 83.7C297.3 83.7 294.4 87.1 295.9 87.6C297.4 88.1 300 88.5 301.7 88.3C303.4 88.1 307.8 87.8 308.2 86.1C308.5 84.4 307 81.8 309.6 81.8C312.2 81.8 315.4 82.8 315.4 82.8L323.9 93.4L324.6 101.7L326.8 111.7L323.7 115.1L315.7 117.8L309.9 120L309.5 129.7Z" stroke="white" stroke-width="2" stroke-miterlimit="10"/>
</svg>
