<svg  id='cluster_1' width="1174" height="696" fill='none' viewBox="0 0 1174 696" xmlns="http://www.w3.org/2000/svg">
<path id='path_1' d="M1092.45 677.513L1094.63 674.915H1098.98L1100.67 677.513L1102.15 679.912L1100.96 683.109H1102.15L1104.83 685.108L1105.82 687.806V689.005H1108.49L1111.16 690.004L1113.54 693.902V695.9H1115.42L1116.31 694.901L1117.5 693.902L1119.88 695.101L1123.54 696L1122.65 694.301C1122.65 694.301 1121.96 692.602 1121.96 691.703C1121.96 690.804 1123.44 687.606 1123.44 687.606V684.209L1124.93 684.009L1127.1 683.309C1127.1 683.309 1128.1 680.711 1127.1 680.711C1126.11 680.711 1121.86 678.513 1121.36 678.313C1120.87 678.113 1117.8 676.314 1117.8 676.314L1115.22 674.815H1112.65H1108.79L1103.44 672.617L1100.57 665.522L1099.38 660.625V656.229L1102.05 655.029H1103.54L1104.23 650.932L1104.43 649.234H1106.61C1106.61 649.234 1108.59 647.735 1109.18 649.234C1109.68 650.733 1110.57 652.331 1110.57 652.331L1111.46 652.531L1112.65 648.634H1115.82L1121.16 644.737H1123.54L1126.11 647.435L1126.31 649.334L1129.18 651.332L1132.35 651.632L1133.74 654.03V656.728L1135.72 658.627H1139.78C1140.27 658.627 1141.17 658.827 1141.66 658.827C1142.16 658.827 1143.64 660.226 1143.64 660.226L1142.45 662.424L1141.56 662.724L1146.81 668.12L1153.74 674.416C1153.74 674.416 1159.09 678.013 1160.28 678.013C1161.46 678.013 1168 680.411 1168 680.411C1168 680.411 1160.77 674.815 1160.28 674.615C1159.78 674.416 1157.21 670.318 1157.21 670.318L1157.01 668.42C1157.01 668.42 1161.37 668.12 1161.86 668.12C1162.36 668.12 1166.12 667.121 1166.12 667.121L1164.24 663.224L1161.17 659.127L1160.47 655.929L1162.85 653.93L1166.91 654.23L1167.9 653.73C1167.9 653.73 1167.01 651.832 1166.51 650.832C1166.02 649.833 1165.33 644.737 1165.33 644.737L1159.29 642.538C1159.29 642.538 1156.61 641.04 1156.41 640.54C1156.22 640.04 1156.12 636.943 1155.92 636.443C1155.72 635.943 1153.25 632.046 1153.25 632.046L1155.23 628.848H1159.29L1160.28 627.349L1157.4 621.554C1157.4 621.554 1147.11 618.156 1146.31 618.156C1145.42 618.156 1138.89 619.155 1138.39 618.855C1137.9 618.556 1132.15 614.059 1132.15 614.059C1132.15 614.059 1131.46 605.365 1129.98 604.166C1128.49 602.967 1126.81 599.569 1126.81 599.569L1131.16 593.074C1131.16 593.074 1130.97 588.278 1129.98 586.779C1128.99 585.28 1129.98 580.983 1129.98 580.983L1125.62 574.188L1122.55 571.59L1117.5 570.59L1108.09 571.59L1100.17 572.289L1084.82 566.893L1075.42 562.596L1070.66 559.498L1064.72 558.799C1064.72 558.799 1051.95 559.099 1051.45 558.799C1050.96 558.499 1046.9 556.9 1046.9 556.9C1046.9 556.9 1043.83 551.504 1043.33 550.804C1042.84 550.105 1039.67 548.106 1038.98 547.707C1038.28 547.407 1031.25 544.309 1031.25 544.309L1028.88 541.711C1028.88 541.711 1034.22 542.41 1034.82 541.711C1035.31 541.011 1044.13 543.61 1044.13 543.61C1044.13 543.61 1049.67 547.207 1051.55 549.006C1053.43 550.904 1058.98 552.403 1059.67 552.403C1060.37 552.403 1065.61 552.703 1066.7 552.903C1067.89 553.103 1072.64 556.5 1072.64 556.5L1078.19 556.301C1078.19 556.301 1077.2 551.204 1076.8 550.005C1076.51 548.806 1069.08 544.409 1068.88 543.51C1068.68 542.61 1069.77 534.116 1069.77 534.116C1069.77 534.116 1072.64 533.117 1073.63 532.418C1074.62 531.718 1077.2 525.423 1077.5 524.723C1077.79 524.024 1083.44 521.526 1084.03 521.526C1084.63 521.526 1091.46 522.025 1092.25 522.025C1093.14 522.025 1095.12 520.826 1095.62 520.027C1096.11 519.127 1096.8 513.032 1097.1 512.532C1097.4 512.032 1099.68 508.135 1099.68 508.135L1109.28 502.739L1113.34 504.238L1118.39 505.137L1120.07 504.937L1119.18 502.739C1119.18 502.739 1114.43 500.74 1113.44 500.341C1112.45 500.041 1109.08 498.942 1107.4 498.442C1105.72 497.942 1100.47 493.146 1100.47 493.146L1091.66 489.549L1082.25 483.453C1082.25 483.453 1079.58 479.856 1078.88 479.356C1078.19 478.856 1070.66 475.758 1070.66 475.758L1066.41 471.861C1066.41 471.861 1064.43 463.867 1063.53 463.367C1062.64 462.868 1063.83 460.769 1063.83 460.769C1063.83 460.769 1067.5 459.27 1068.88 458.771C1070.27 458.271 1089.48 461.868 1089.48 461.868L1091.16 459.87L1083.04 437.386L1076.6 428.892C1076.6 428.892 1078.98 423.096 1078.98 421.398C1078.98 419.699 1076.6 407.807 1076.6 407.807C1076.6 407.807 1060.46 399.313 1059.38 398.914C1058.39 398.614 1038.48 391.819 1038.48 391.819L1022.94 380.927L997.29 367.636L993.924 358.743L990.26 350.948L996.993 329.164L975.11 311.776L953.92 302.883L941.146 297.786H929.66H899.954C899.954 297.786 884.408 297.087 883.418 296.088C882.428 295.088 872.328 285.895 872.328 285.895L867.476 277.201C867.476 277.201 862.228 270.106 861.733 269.507C861.237 269.007 856.881 261.712 856.881 261.213C856.881 260.713 855.494 240.428 855.494 240.428L850.642 232.134C850.642 232.134 838.166 224.339 837.473 223.84C836.78 223.34 832.72 219.743 832.126 217.344C831.532 214.946 825.194 201.856 825.194 201.856C825.194 201.856 824.006 196.459 824.204 195.26C824.402 194.061 824.006 186.966 824.006 186.966L802.222 181.87L794.795 177.473L791.726 171.477C791.726 171.477 795.39 163.183 796.281 162.584C797.172 162.084 810.936 156.488 813.807 156.488C816.679 156.488 824.303 156.688 826.482 155.789C828.66 154.889 842.028 146.795 842.028 146.795L842.325 135.403L843.216 121.313L835.096 114.019C835.096 114.019 817.273 110.621 816.58 109.922C815.887 109.222 803.41 98.33 803.311 97.8303C803.113 97.3307 792.716 89.5363 792.716 89.5363L770.437 84.2401V69.051L760.337 58.3587L718.352 50.6643H684.488H675.873L648.049 45.0683L626.264 21.0855L556.356 1H526.354L508.134 10.1934L495.36 14.5902L486.251 12.3918L472.388 19.3868L463.575 29.2797C463.575 29.2797 456.545 33.6765 455.456 34.0762C454.465 34.376 433.869 32.6772 433.869 32.6772L397.628 41.1711V58.5586L387.528 62.2559L369.903 61.5564L367.229 80.6427C367.229 80.6427 361.189 89.5363 359.803 89.8361C358.416 90.1359 323.76 99.0295 323.76 99.0295C323.76 99.0295 286.33 106.124 285.34 106.524C284.35 106.824 253.357 115.717 251.277 116.417C249.297 117.116 235.137 112.72 235.137 112.72L226.72 117.116L168.002 113.519L145.524 83.9403L97.5 90.3357L70.8638 112.72L54.1295 134.704L68.5863 150.792C68.5863 150.792 64.9226 153.191 60.3677 156.088C54.0304 160.185 46.0099 165.182 44.6236 165.382C42.2471 165.682 13.2344 172.177 12.2442 172.876C11.254 173.576 1.74815 178.272 1.74815 178.272V185.367C1.74815 185.367 0.0648157 191.463 1.74815 191.463C3.43148 191.463 7.78831 192.162 7.78831 192.162L11.8481 195.26L12.9373 203.654L13.7295 205.953L19.6707 208.051L22.7403 208.451L26.701 211.049L24.3246 212.548C24.3246 212.548 26.305 212.948 26.503 212.848C26.7011 212.748 28.7805 211.549 28.7805 211.549L31.256 210.349L33.8305 211.049L33.9295 211.648L37.1971 211.848L39.1775 211.748C39.1775 211.748 40.2667 211.149 40.2667 210.949C40.2667 210.749 41.752 208.651 41.752 208.651L42.8412 207.052C42.8412 207.052 41.752 205.853 40.5638 205.953C39.4746 206.052 36.9991 204.354 36.9991 204.354L36.801 202.855L33.4344 202.955L30.5628 203.055L27.8893 199.957C27.8893 199.957 30.5628 197.858 30.9589 197.659C31.355 197.459 56.0108 192.662 56.0108 192.662L66.0118 193.661L71.0618 195.16L72.349 197.459L70.4677 201.456L63.9324 206.652L47.0991 212.548C47.0991 212.548 38.9795 214.846 38.4844 215.246C37.9893 215.646 36.603 218.144 36.603 218.144L37.6922 221.242L36.801 224.539L32.3452 229.536L30.3648 233.533C30.3648 233.533 31.2559 235.531 32.1471 235.831C33.0383 236.131 36.603 236.331 36.603 236.331L38.9795 237.43C38.9795 237.43 38.1873 239.229 38.1873 239.628C38.1873 240.028 38.0883 240.927 38.4844 240.927C38.8804 240.927 47.7922 235.531 47.7922 235.531L57.3971 232.733L65.5167 226.838L76.1118 222.74L91.5588 216.645L99.6784 214.946L98.2922 212.548L99.5794 209.65L107.006 205.853L127.899 200.157L170.576 194.661L196.222 191.863H213.749L234.246 195.06L256.129 199.557L262.368 203.654L263.358 207.751L262.467 213.447L252.466 218.144L241.177 228.636L238.009 237.03C238.009 237.03 241.276 238.129 242.069 236.93C242.861 235.631 248.01 230.135 248.307 229.835C248.604 229.436 257.02 223.24 257.02 223.24C257.02 223.24 268.606 213.647 269.398 213.447C270.19 213.147 282.072 210.849 282.072 210.849L286.627 207.651L289.004 202.155L272.963 200.257L268.804 199.157C268.804 199.157 268.012 198.258 268.012 197.758C268.012 197.259 269.497 193.162 269.497 193.162L269.398 188.265C269.398 188.265 271.675 183.269 272.17 183.069C272.666 182.769 275.735 179.771 275.735 179.771C275.735 179.771 273.854 175.574 273.854 175.075C273.854 174.575 275.537 170.378 275.834 170.078C276.23 169.779 290.291 163.483 290.291 163.483L310.491 157.387L329.107 156.088L348.515 141.699L361.684 126.41L381.191 123.012L398.42 123.312L417.333 111.021L439.91 101.528L442.979 90.6355L437.929 76.3458L440.999 71.2495L452.782 72.6485L467.932 79.4436L483.775 77.0453C483.775 77.0453 509.718 80.1431 510.708 80.7426C511.699 81.4421 523.185 86.5385 523.185 86.5385L528.928 101.528L542.296 115.118L561.307 119.315L562.298 120.414C562.298 120.414 563.783 129.008 563.585 129.308C563.387 129.607 564.476 132.206 564.476 132.206C564.476 132.206 572.101 133.705 572.398 133.705H590.518C590.518 133.705 600.519 134.504 600.717 135.004C600.915 135.503 602.004 137.702 602.004 137.702L607.451 136.902L612.996 136.403L614.778 134.404L613.689 133.105L601.806 130.507L589.33 126.809C589.33 126.809 588.043 126.71 588.043 126.21C588.043 125.71 591.409 120.214 591.409 120.214L594.677 115.717L600.024 117.616C600.024 117.616 600.42 119.415 601.41 119.515C602.401 119.615 608.144 118.615 608.144 118.615C608.144 118.615 612.996 115.917 613.491 115.917C613.986 115.917 649.732 118.216 649.732 118.216L665.278 122.712L673.398 128.109L678.348 133.305L678.646 137.102C678.646 137.102 674.091 142.198 673.794 142.698C673.497 143.198 667.951 150.393 667.951 150.393L668.546 155.289C668.546 155.289 666.862 158.587 666.268 158.986C665.674 159.386 662.604 160.086 662.01 160.685C661.416 161.185 659.832 166.181 659.832 166.181C659.832 166.181 662.406 170.178 662.901 170.478C663.397 170.878 664.288 173.176 664.288 173.176L662.109 176.474L660.129 178.772L661.812 181.87C661.812 181.87 667.852 178.972 668.249 178.472C668.645 177.973 673.398 176.774 673.398 176.774L685.28 177.873C685.28 177.873 691.32 181.57 691.32 181.97C691.32 182.37 690.825 185.667 690.825 185.667L688.151 187.066L688.25 189.764L688.548 191.963L692.805 188.265L697.063 188.165L702.509 188.465L704.292 186.966L708.45 184.368L717.263 180.271L722.808 181.07L726.472 181.57L732.116 178.372L737.067 175.974L750.237 176.274L763.505 180.871L776.576 186.067L781.032 191.663L781.824 196.16L779.942 201.256L773.605 204.054C773.605 204.054 770.338 206.452 769.843 206.952C769.347 207.451 768.951 210.249 768.951 210.249L770.734 214.446L767.565 217.544C767.565 217.544 764.891 220.242 764.198 220.242C763.505 220.242 758.158 217.644 758.158 217.644L750.831 218.044L745.187 221.242L738.651 221.841L733.502 223.24L728.056 223.84H722.61L720.729 227.937L719.045 229.436L714.887 230.335L713.897 232.533L720.135 233.633L727.066 233.533L734.097 232.434L740.335 236.531L740.632 239.129H745.583L748.85 239.428L750.732 241.327L754.792 240.827C754.792 240.827 761.822 243.426 762.218 243.526C762.614 243.625 765.585 247.123 765.585 247.123L764.793 249.721L761.921 251.42L765.288 255.117L761.525 256.816L756.079 258.115L760.931 260.114L765.783 259.214C765.783 259.214 766.179 262.312 765.783 262.512C765.387 262.812 764.693 264.011 764.693 264.011L766.872 265.01L769.545 264.411L772.12 260.613L777.467 258.415L780.141 261.613C780.141 261.613 781.032 266.109 781.032 266.809C781.032 267.608 779.942 272.005 779.942 272.005L775.982 275.702C775.982 275.702 769.149 275.303 767.763 274.803C766.377 274.303 762.713 272.105 762.713 272.105L759.445 272.705C759.445 272.705 758.851 273.804 758.851 275.003C758.851 276.202 758.752 278.8 759.247 279C759.742 279.1 776.081 285.995 776.081 285.995L779.447 288.793L784.002 290.692L786.775 290.092L790.439 293.49L793.706 297.287L799.152 300.884L800.638 305.881C800.638 305.881 798.756 307.579 798.36 307.879C797.964 308.279 800.142 310.178 800.142 311.077C800.142 311.976 800.241 313.775 800.241 313.775C800.241 313.775 794.597 315.973 794.399 316.373C794.3 316.773 798.162 318.671 798.162 318.671L802.42 320.47C802.42 320.47 802.42 322.469 801.826 322.769C801.232 323.068 796.479 324.567 796.479 324.567L793.112 329.464L787.765 331.162L784.398 334.76L773.605 335.659L766.278 336.459L762.713 333.261L761.327 329.464L761.723 326.166L759.445 324.667L758.356 322.469L757.069 320.67L755.584 322.469C755.584 322.469 758.158 328.764 758.158 329.064C758.158 329.364 761.723 339.756 761.723 339.756C761.723 339.756 761.822 341.155 762.713 341.555C763.604 341.955 764.693 344.453 764.693 344.453C764.693 344.453 764.396 346.651 764.793 346.651H766.971L771.229 341.155L775.487 340.356H782.22L792.716 343.054L796.974 346.451L801.43 349.349L807.767 351.348H812.025L818.461 352.747L827.076 357.943L829.353 363.04L826.779 367.037L821.63 366.937L819.748 370.134V373.932L825.392 376.23C825.392 376.23 830.442 379.528 830.541 379.927C830.64 380.327 835.393 385.423 835.393 386.323C835.393 387.222 836.483 391.419 836.483 391.419L843.513 393.618L844.998 395.916L845.889 398.314L850.94 398.214L853.217 397.615C853.217 397.615 857.178 395.316 857.475 395.017C857.871 394.717 861.138 392.219 861.138 392.219C861.138 392.219 866.486 395.516 866.486 395.916V400.613L863.911 405.309L861.337 410.705C861.337 410.705 859.356 413.303 858.465 413.303C857.574 413.303 854.405 413.803 854.405 413.803L855.296 417.201C855.296 417.201 854.504 417.8 853.91 418.1C853.316 418.4 853.118 419.899 853.118 419.899C853.118 419.899 854.9 420.298 855.395 420.998C855.891 421.797 855.395 423.796 855.395 423.796C855.395 423.796 854.108 424.395 853.91 425.694C853.613 426.994 853.019 429.492 853.91 429.891C854.801 430.291 856.584 432.789 856.584 432.789L862.129 433.389L863.614 436.187L864.208 439.784L866.882 441.483C866.882 441.483 870.149 441.783 870.446 440.983C870.743 440.184 871.437 436.986 871.437 436.487C871.437 435.987 874.11 430.791 874.11 430.791L876.487 429.692L879.754 430.691C879.754 430.691 879.358 433.988 878.962 433.988C878.566 433.988 873.813 434.288 873.813 434.288L874.902 435.987L879.754 436.487C879.754 436.487 883.913 437.586 883.913 438.285V441.583L883.319 443.781L881.636 445.28L882.725 446.18L887.874 446.08L892.528 450.676L890.151 453.375L890.943 457.971C890.943 457.971 890.547 459.97 890.151 460.37C889.755 460.769 889.062 464.866 889.557 464.966C890.052 465.066 892.825 464.866 892.825 464.866C892.825 464.866 892.33 469.063 892.033 469.563C891.736 470.063 893.023 475.459 893.023 475.459L890.646 478.157C890.646 478.157 891.141 479.955 891.637 480.155C892.132 480.455 893.122 480.955 893.419 482.054C893.716 483.153 897.083 488.649 897.083 488.649C897.083 488.649 897.479 494.945 897.479 495.444C897.479 495.944 901.241 502.839 901.241 502.839L907.975 504.738L914.213 509.634L919.362 519.627L927.085 527.821L928.868 534.216L937.681 540.212L949.662 555.801V561.797L950.454 567.692L954.712 574.188L957.782 573.788L956.098 567.892L961.148 567.492C961.148 567.492 965.208 567.093 965.307 567.592C965.406 568.092 968.377 572.089 968.377 572.089C968.377 572.089 974.219 576.786 974.318 577.585C974.417 578.385 978.378 582.582 978.378 582.582L983.031 593.674L986.398 596.272C986.398 596.272 991.745 598.17 992.438 598.47C993.23 598.77 997.092 598.47 997.092 598.47L1002.64 596.771C1002.64 596.771 1006.8 598.27 1007.98 598.97C1009.07 599.569 1012.14 602.267 1012.14 602.267V611.161L1013.63 617.956L1012.14 620.654C1012.14 620.654 1009.27 620.554 1008.88 620.954C1008.48 621.354 1007.09 624.951 1007.09 626.55C1007.09 628.249 1008.48 631.746 1009.27 634.444C1010.06 637.142 1014.22 641.04 1014.22 641.04L1020.46 642.439L1023.73 642.538L1025.61 640.74C1025.61 640.74 1024.22 639.341 1026.9 639.641C1029.57 639.94 1033.83 642.039 1033.83 642.039L1036.9 645.736L1033.83 652.331C1033.83 652.331 1033.33 653.431 1034.62 654.33C1035.91 655.229 1038.19 655.729 1038.19 655.729L1044.92 655.429L1048.19 650.233L1053.24 650.832L1055.61 649.434L1057.4 645.836L1063.34 644.737L1066.11 646.536L1069.77 645.636C1069.77 645.636 1072.05 644.637 1072.84 645.137C1073.63 645.636 1075.71 648.035 1076.11 648.534C1076.51 649.034 1077.6 652.132 1077 652.232C1076.41 652.331 1075.32 653.531 1075.32 653.531L1077.99 657.228L1079.87 659.526C1079.87 659.526 1079.48 660.825 1079.48 661.525C1079.48 662.324 1086.31 666.221 1086.31 666.221C1086.31 666.221 1088.59 666.122 1088.69 666.521C1088.78 666.921 1090.37 669.719 1090.37 669.719L1089.38 673.116V676.214L1091.16 677.513H1092.45Z" stroke="white" stroke-width="2" stroke-miterlimit="10"/>
</svg>
