<svg width="1.93vw" height="1.93vw" viewBox="0 0 37 37" fill="none" xmlns="http://www.w3.org/2000/svg">
<g clip-path="url(#clip0_683_3715)">
<path d="M18.3 0C8.2 0 0 8.2 0 18.3C0 28.4 8.2 36.6 18.3 36.6C28.4 36.6 36.6 28.4 36.6 18.3C36.6 8.2 28.4 0 18.3 0ZM27.1 12.3C27 12.4 26.9 12.5 26.8 12.5L23.3 15.9L25.7 25.9L24.2 27.3L19.4 19.5L14.4 24.2L14.3 27.7L8.9 22.4L12.5 22.3L17.2 17.4L9.4 12.5L10.9 11L20.8 13.6L23 11.4C23.9 10.4 24 10.3 24.7 9.6C25.2 9.1 26.1 9 26.8 9.3C27.2 9.5 27.5 9.7 27.7 10.3C28 11.3 27.3 12.1 27.1 12.3Z" fill="white"/>
</g>
<defs>
<clipPath id="clip0_683_3715">
<rect width="36.6" height="36.6" fill="white"/>
</clipPath>
</defs>
</svg>
