<svg width="37.19vw" height="20.42vw" viewBox="0 0 714 392" fill="none" xmlns="http://www.w3.org/2000/svg">
<path d="M76.72 351.28L76.08 352.04" stroke="#FF0000" stroke-width="2" stroke-miterlimit="10"/>
<path d="M74.78 353.58L73.97 354.54C73.46 356.76 74.21 359.07 75.9 360.58L77.14 361.69L82.08 366.47L83.7 370.73L83.87 375.33L87.87 382.56C87.87 382.56 91.78 385.03 92.47 385.2C92.95 385.32 97.52 386.83 100.18 387.72" stroke="#FF0000" stroke-width="2" stroke-miterlimit="10" stroke-dasharray="2.01 2.01"/>
<path d="M101.14 388.03C101.72 388.22 102.09 388.34 102.09 388.34" stroke="#FF0000" stroke-width="2" stroke-miterlimit="10"/>
<path d="M31.44 308.98C31.44 308.98 31.14 309.19 30.62 309.55" stroke="#FF0000" stroke-width="2" stroke-miterlimit="10"/>
<path d="M28.98 310.7C24.51 313.82 15.45 320.13 14.87 320.32C14.51 320.44 13.7 321.23 12.96 322.03C11.94 323.12 11.46 324.61 11.65 326.09C11.97 328.64 10.99 331.17 9.03001 332.83C8.21001 333.52 7.30002 334.11 6.32002 334.57L3.53001 335.88C1.93001 337.51 1.11 339.54 2.68 341.2L8.58 347.77C10.51 349.92 13.26 351.15 16.15 351.15H20.44C21.58 351.15 22.72 350.97 23.81 350.62L28.41 349.12C30.13 348.56 31.71 347.65 33.06 346.44L33.11 346.4C34.94 344.76 37.31 343.85 39.77 343.84L66.12 343.7C68.35 343.69 70.56 343.33 72.68 342.63L80.04 340.2L90.01 336.22C92.39 335.27 95.21 336.13 96.42 338.39C96.5 338.54 96.58 338.7 96.64 338.86C96.89 339.46 97.1 339.96 97.16 340.12C97.34 340.63 95.3 346.25 94.25 346.42C93.21 346.59 86.59 349.48 86.59 349.48L67.87 353.57L34.25 359.1L27.02 360.57" stroke="#FF0000" stroke-width="2" stroke-miterlimit="10" stroke-dasharray="2 2"/>
<path d="M26.04 360.74L25.06 360.94" stroke="#FF0000" stroke-width="2" stroke-miterlimit="10"/>
<path d="M67.79 312.26C67.79 312.26 63.19 311.07 59.88 311.07C56.57 311.07 42.77 312.35 40.48 312.35C38.19 312.35 30.24 308.12 30.24 308.12" stroke="#FF0000" stroke-width="2" stroke-miterlimit="10" stroke-dasharray="2 2"/>
<path d="M96.58 342.31C96.84 341.45 99.51 339.54 99.53 336.26C99.54 334.08 98.61 332.53 97.83 331.24C95.98 328.17 93.34 326.63 91.87 325.79C90.29 324.89 88.99 324.44 88.21 324.17C88.21 324.17 74.52 319.42 68.81 314.13C68.4 313.75 67.74 313.08 67.79 312.26C67.81 312.01 67.92 311.24 70.43 309.62C72.74 308.12 73.86 307.99 74.09 306.98C74.24 306.31 73.93 305.57 73.49 305.11C72.88 304.47 71.64 304.44 71.38 304.43" stroke="#FF0000" stroke-width="2" stroke-miterlimit="10" stroke-dasharray="2 2"/>
<path d="M70.6 304.42C66.09 304.17 64.98 305.27 64.05 305.19C63.11 305.1 61.93 306.05 58.61 305.19C55.29 304.33 52.65 305.45 49.16 304.38C45.67 303.31 43.29 303.91 40.9 301.1C38.51 298.29 40.47 294.04 40.47 294.04L41.66 289.1L42.68 285.1L42.42 280.93L40.97 276.76L36.88 273.61L36.78 273.46C35.3 271.37 34.96 268.68 35.86 266.29L39.35 259.74L42.07 255.57L44.37 250.63L47.35 247.14C47.35 247.14 52.46 244.08 52.41 243.99C52.36 243.9 56.96 237.27 56.96 237.27C57.55 234.09 59.53 231.34 62.36 229.77L64.96 228.33L75.77 219.73L93.81 208.41L113.21 197.3L116.53 194.62L118.06 192.83L118.68 192C120.69 189.29 123.45 187.23 126.62 186.06H133.26L142 184L147.28 182.55L154.27 180.48C156.24 179.89 158.36 180.01 160.26 180.8C164.45 182.54 169.18 182.37 173.23 180.34L182.42 173.19L188.04 169.62L190.72 165.79L193.91 159.15V152L193.02 145.74L192.13 138.21L191.49 132.03C191.41 131.22 191.45 130.39 191.63 129.6L192.51 125.7L194.62 123.37C195.67 122.21 196.9 121.23 198.27 120.47L203.19 117.72C204.32 117.09 205.53 116.62 206.79 116.34L217.15 113.97C219.71 113.39 221.98 111.93 223.56 109.85C224.86 108.14 225.57 106.04 225.57 103.88V100.31L221.87 94.82L221.08 92.07C220.35 89.53 220.31 86.83 220.98 84.27C221.23 83.32 221.22 82.32 220.94 81.38L220.85 81.05C220.11 78.5 220.39 75.76 221.62 73.4L222.64 71.45L230.81 62.51L231.34 62.24C233.69 61.03 236.44 60.84 238.93 61.72L239.43 61.9C242.43 62.96 245.71 62.9 248.68 61.75L283.91 51.03L294.68 47.2C297.25 46.29 299.46 44.57 300.99 42.31C301.92 40.92 303.27 39.87 304.84 39.3L310.85 37.11L325.95 31.98C328.44 31.13 329.94 28.59 329.48 26L318.76 13.23L301.68 1.63" stroke="#FF0000" stroke-width="2" stroke-miterlimit="10" stroke-dasharray="2 2"/>
<path d="M330.29 28.43C331.59 28.14 332.74 28.04 333.71 28.03C336.24 28.01 338.72 27.32 340.84 25.94C341.94 25.23 342.87 24.29 343.59 23.19L344.91 21.15C345.35 20.47 345.88 19.86 346.48 19.32L349.14 16.95C350.55 15.7 352.31 14.91 354.19 14.71L354.73 14.65C357.18 14.39 359.53 13.51 361.56 12.1L365.43 9.41001C366.76 8.48001 368.3 7.90001 369.91 7.70001L379.62 6.54001C380.02 6.49001 380.43 6.47001 380.84 6.47001H398.78L404.97 7.35001C407.18 7.67001 409.43 7.53001 411.58 6.95001L427.63 2.65001C430.15 1.98001 432.79 1.89001 435.35 2.40001L447.97 4.92001L455.95 8.54001C459.09 9.96001 462.54 10.55 465.97 10.24L469.22 9.95001C472.42 9.66001 475.65 10.16 478.62 11.39L508.56 23.81L524.05 28.41H529.53C533.13 28.41 536.6 27.11 539.32 24.75L542.94 21.6L544.01 20.45C546.28 18.01 549.35 16.46 552.67 16.07L558.21 15.43C560.56 15.16 562.92 15.7 564.91 16.97L566.99 18.3C568.64 19.35 570.5 20 572.44 20.21L579.4 20.95C581.28 21.15 583.18 20.92 584.96 20.28L591.12 18.06C592.13 17.7 593.17 17.43 594.24 17.27L609.15 15.01H624.3L635.65 16.18C638.7 16.49 641.63 17.54 644.19 19.24L650.34 23.3L657.66 28.41L667.87 36.58L671.05 38.28C673.99 39.85 676.51 42.11 678.37 44.88L679.78 46.97L687.95 51.57C689.58 54.42 689.2 57.99 687.02 60.43L683.69 64.16L681.31 69.95C681.51 72.59 680 75.07 677.56 76.09L676.38 76.59L668.19 80.62C666.22 81.59 664.62 83.19 663.64 85.16L659.53 93.44C659.53 97.09 660.71 100.64 662.88 103.56C664.24 105.39 666.14 106.74 668.32 107.42L675.87 109.78L681 110.99C685.09 111.95 688.56 114.65 690.5 118.37L693.39 123.91L697.3 131.4V135.86C697.3 139.79 699.2 143.48 702.4 145.77L710.41 151.49" stroke="#FF0000" stroke-width="2" stroke-miterlimit="10" stroke-dasharray="2 2"/>
<path d="M221.15 79.4C217.41 77.36 213.06 75.06 213.06 75.06L201.75 72.17C199.56 71.61 197.28 71.57 195.07 72.04L187.76 73.62C186.48 73.9 185.17 74.02 183.85 73.99L171.02 73.69L160.13 68.41L158.66 66.35C156.16 62.84 152.12 60.75 147.81 60.75H125.91H108.21C108.21 60.75 104.21 58.88 100.55 60.75C98.15 61.98 95.1 66.71 95.1 66.71L89.83 80" stroke="#FF0000" stroke-width="2" stroke-miterlimit="10" stroke-dasharray="2 2"/>
<path d="M102.23 60.16C98.83 58.46 95.96 55.32 95.96 55.32C95.96 55.32 95.96 49.87 95.96 49.19C95.96 48.51 94.26 43.91 94.26 43.91L88.3 40.17L73.68 37.06" stroke="#FF0000" stroke-width="2" stroke-miterlimit="10" stroke-dasharray="2 2"/>
<path d="M54.64 310.81C56.36 310.1 57.08 310.66 57.2 308.98C57.32 307.3 55.6 305.56 55.6 305.56L53.3 305.19" stroke="#FF0000" stroke-width="2" stroke-miterlimit="10" stroke-dasharray="2 2"/>
<path d="M101.55 390.38C102.936 390.38 104.06 389.256 104.06 387.87C104.06 386.484 102.936 385.36 101.55 385.36C100.164 385.36 99.04 386.484 99.04 387.87C99.04 389.256 100.164 390.38 101.55 390.38Z" fill="#FF0000" stroke="white" stroke-width="2" stroke-miterlimit="10"/>
<path d="M25.66 363.45C27.0462 363.45 28.17 362.326 28.17 360.94C28.17 359.554 27.0462 358.43 25.66 358.43C24.2737 358.43 23.15 359.554 23.15 360.94C23.15 362.326 24.2737 363.45 25.66 363.45Z" fill="#FF0000" stroke="white" stroke-width="2" stroke-miterlimit="10"/>
<path d="M41.36 360.94C42.7462 360.94 43.87 359.816 43.87 358.43C43.87 357.044 42.7462 355.92 41.36 355.92C39.9738 355.92 38.85 357.044 38.85 358.43C38.85 359.816 39.9738 360.94 41.36 360.94Z" fill="#FF0000" stroke="white" stroke-width="2" stroke-miterlimit="10"/>
<path d="M61.11 357.11C62.4962 357.11 63.62 355.986 63.62 354.6C63.62 353.214 62.4962 352.09 61.11 352.09C59.7238 352.09 58.6 353.214 58.6 354.6C58.6 355.986 59.7238 357.11 61.11 357.11Z" fill="#FF0000" stroke="white" stroke-width="2" stroke-miterlimit="10"/>
<path d="M98.47 335.57C99.8562 335.57 100.98 334.446 100.98 333.06C100.98 331.674 99.8562 330.55 98.47 330.55C97.0837 330.55 95.96 331.674 95.96 333.06C95.96 334.446 97.0837 335.57 98.47 335.57Z" fill="#FF0000" stroke="white" stroke-width="2" stroke-miterlimit="10"/>
<path d="M70.29 316.57C71.6762 316.57 72.8 315.446 72.8 314.06C72.8 312.674 71.6762 311.55 70.29 311.55C68.9037 311.55 67.78 312.674 67.78 314.06C67.78 315.446 68.9037 316.57 70.29 316.57Z" fill="#FF0000" stroke="white" stroke-width="2" stroke-miterlimit="10"/>
<path d="M59.7 313.13C61.0862 313.13 62.21 312.006 62.21 310.62C62.21 309.234 61.0862 308.11 59.7 308.11C58.3138 308.11 57.19 309.234 57.19 310.62C57.19 312.006 58.3138 313.13 59.7 313.13Z" fill="#FF0000" stroke="white" stroke-width="2" stroke-miterlimit="10"/>
<path d="M710.43 153.23C711.816 153.23 712.94 152.106 712.94 150.72C712.94 149.334 711.816 148.21 710.43 148.21C709.044 148.21 707.92 149.334 707.92 150.72C707.92 152.106 709.044 153.23 710.43 153.23Z" fill="#FF0000" stroke="white" stroke-width="2" stroke-miterlimit="10"/>
<path d="M694.79 129.68C696.176 129.68 697.3 128.556 697.3 127.17C697.3 125.784 696.176 124.66 694.79 124.66C693.404 124.66 692.28 125.784 692.28 127.17C692.28 128.556 693.404 129.68 694.79 129.68Z" fill="#FF0000" stroke="white" stroke-width="2" stroke-miterlimit="10"/>
<path d="M40.4 313.98C41.7863 313.98 42.91 312.856 42.91 311.47C42.91 310.084 41.7863 308.96 40.4 308.96C39.0138 308.96 37.89 310.084 37.89 311.47C37.89 312.856 39.0138 313.98 40.4 313.98Z" fill="#FF0000" stroke="white" stroke-width="2" stroke-miterlimit="10"/>
<path d="M12.06 329.72C13.4462 329.72 14.57 328.596 14.57 327.21C14.57 325.824 13.4462 324.7 12.06 324.7C10.6738 324.7 9.54999 325.824 9.54999 327.21C9.54999 328.596 10.6738 329.72 12.06 329.72Z" fill="#FF0000" stroke="white" stroke-width="2" stroke-miterlimit="10"/>
<path d="M39.51 345.42C40.8962 345.42 42.02 344.296 42.02 342.91C42.02 341.524 40.8962 340.4 39.51 340.4C38.1238 340.4 37 341.524 37 342.91C37 344.296 38.1238 345.42 39.51 345.42Z" fill="#FF0000" stroke="white" stroke-width="2" stroke-miterlimit="10"/>
<path d="M73.81 344.82C75.1962 344.82 76.32 343.696 76.32 342.31C76.32 340.924 75.1962 339.8 73.81 339.8C72.4238 339.8 71.3 340.924 71.3 342.31C71.3 343.696 72.4238 344.82 73.81 344.82Z" fill="#FF0000" stroke="white" stroke-width="2" stroke-miterlimit="10"/>
<path d="M42.91 287.34C44.2962 287.34 45.42 286.216 45.42 284.83C45.42 283.444 44.2962 282.32 42.91 282.32C41.5237 282.32 40.4 283.444 40.4 284.83C40.4 286.216 41.5237 287.34 42.91 287.34Z" fill="#FF0000" stroke="white" stroke-width="2" stroke-miterlimit="10"/>
<path d="M35.39 269.79C36.7762 269.79 37.9 268.666 37.9 267.28C37.9 265.894 36.7762 264.77 35.39 264.77C34.0038 264.77 32.88 265.894 32.88 267.28C32.88 268.666 34.0038 269.79 35.39 269.79Z" fill="#FF0000" stroke="white" stroke-width="2" stroke-miterlimit="10"/>
<path d="M81.53 218.66C82.9163 218.66 84.04 217.536 84.04 216.15C84.04 214.764 82.9163 213.64 81.53 213.64C80.1438 213.64 79.02 214.764 79.02 216.15C79.02 217.536 80.1438 218.66 81.53 218.66Z" fill="#FF0000" stroke="white" stroke-width="2" stroke-miterlimit="10"/>
<path d="M126.96 188.4C128.346 188.4 129.47 187.276 129.47 185.89C129.47 184.504 128.346 183.38 126.96 183.38C125.574 183.38 124.45 184.504 124.45 185.89C124.45 187.276 125.574 188.4 126.96 188.4Z" fill="#FF0000" stroke="white" stroke-width="2" stroke-miterlimit="10"/>
<path d="M178.21 178.55C179.596 178.55 180.72 177.426 180.72 176.04C180.72 174.654 179.596 173.53 178.21 173.53C176.824 173.53 175.7 174.654 175.7 176.04C175.7 177.426 176.824 178.55 178.21 178.55Z" fill="#FF0000" stroke="white" stroke-width="2" stroke-miterlimit="10"/>
<path d="M194.04 153.6C195.426 153.6 196.55 152.476 196.55 151.09C196.55 149.704 195.426 148.58 194.04 148.58C192.654 148.58 191.53 149.704 191.53 151.09C191.53 152.476 192.654 153.6 194.04 153.6Z" fill="#FF0000" stroke="white" stroke-width="2" stroke-miterlimit="10"/>
<path d="M191.54 135.74C192.926 135.74 194.05 134.616 194.05 133.23C194.05 131.844 192.926 130.72 191.54 130.72C190.154 130.72 189.03 131.844 189.03 133.23C189.03 134.616 190.154 135.74 191.54 135.74Z" fill="#FF0000" stroke="white" stroke-width="2" stroke-miterlimit="10"/>
<path d="M212.29 117.36C213.676 117.36 214.8 116.236 214.8 114.85C214.8 113.464 213.676 112.34 212.29 112.34C210.904 112.34 209.78 113.464 209.78 114.85C209.78 116.236 210.904 117.36 212.29 117.36Z" fill="#FF0000" stroke="white" stroke-width="2" stroke-miterlimit="10"/>
<path d="M232.02 65.6C233.406 65.6 234.53 64.4762 234.53 63.09C234.53 61.7038 233.406 60.58 232.02 60.58C230.634 60.58 229.51 61.7038 229.51 63.09C229.51 64.4762 230.634 65.6 232.02 65.6Z" fill="#FF0000" stroke="white" stroke-width="2" stroke-miterlimit="10"/>
<path d="M268.43 57.43C269.816 57.43 270.94 56.3062 270.94 54.92C270.94 53.5338 269.816 52.41 268.43 52.41C267.044 52.41 265.92 53.5338 265.92 54.92C265.92 56.3062 267.044 57.43 268.43 57.43Z" fill="#FF0000" stroke="white" stroke-width="2" stroke-miterlimit="10"/>
<path d="M317.73 36.71C319.116 36.71 320.24 35.5862 320.24 34.2C320.24 32.8138 319.116 31.69 317.73 31.69C316.344 31.69 315.22 32.8138 315.22 34.2C315.22 35.5862 316.344 36.71 317.73 36.71Z" fill="#FF0000" stroke="white" stroke-width="2" stroke-miterlimit="10"/>
<path d="M351.13 17.74C352.516 17.74 353.64 16.6162 353.64 15.23C353.64 13.8438 352.516 12.72 351.13 12.72C349.744 12.72 348.62 13.8438 348.62 15.23C348.62 16.6162 349.744 17.74 351.13 17.74Z" fill="#FF0000" stroke="white" stroke-width="2" stroke-miterlimit="10"/>
<path d="M410.77 9.06001C412.156 9.06001 413.28 7.93625 413.28 6.55001C413.28 5.16378 412.156 4.04001 410.77 4.04001C409.384 4.04001 408.26 5.16378 408.26 6.55001C408.26 7.93625 409.384 9.06001 410.77 9.06001Z" fill="#FF0000" stroke="white" stroke-width="2" stroke-miterlimit="10"/>
<path d="M463.02 12.73C464.406 12.73 465.53 11.6063 465.53 10.22C465.53 8.83379 464.406 7.71002 463.02 7.71002C461.634 7.71002 460.51 8.83379 460.51 10.22C460.51 11.6063 461.634 12.73 463.02 12.73Z" fill="#FF0000" stroke="white" stroke-width="2" stroke-miterlimit="10"/>
<path d="M516.3 27.96C517.686 27.96 518.81 26.8362 518.81 25.45C518.81 24.0638 517.686 22.94 516.3 22.94C514.914 22.94 513.79 24.0638 513.79 25.45C513.79 26.8362 514.914 27.96 516.3 27.96Z" fill="#FF0000" stroke="white" stroke-width="2" stroke-miterlimit="10"/>
<path d="M654 27.96C655.386 27.96 656.51 26.8362 656.51 25.45C656.51 24.0638 655.386 22.94 654 22.94C652.614 22.94 651.49 24.0638 651.49 25.45C651.49 26.8362 652.614 27.96 654 27.96Z" fill="#FF0000" stroke="white" stroke-width="2" stroke-miterlimit="10"/>
<path d="M201.11 73.66C202.496 73.66 203.62 72.5362 203.62 71.15C203.62 69.7638 202.496 68.64 201.11 68.64C199.724 68.64 198.6 69.7638 198.6 71.15C198.6 72.5362 199.724 73.66 201.11 73.66Z" fill="#FF0000" stroke="white" stroke-width="2" stroke-miterlimit="10"/>
<path d="M173.57 76.16C174.956 76.16 176.08 75.0362 176.08 73.65C176.08 72.2638 174.956 71.14 173.57 71.14C172.184 71.14 171.06 72.2638 171.06 73.65C171.06 75.0362 172.184 76.16 173.57 76.16Z" fill="#FF0000" stroke="white" stroke-width="2" stroke-miterlimit="10"/>
<path d="M117.69 62.67C119.076 62.67 120.2 61.5462 120.2 60.16C120.2 58.7738 119.076 57.65 117.69 57.65C116.304 57.65 115.18 58.7738 115.18 60.16C115.18 61.5462 116.304 62.67 117.69 62.67Z" fill="#FF0000" stroke="white" stroke-width="2" stroke-miterlimit="10"/>
<path d="M90.46 83.08C91.8463 83.08 92.97 81.9562 92.97 80.57C92.97 79.1838 91.8463 78.06 90.46 78.06C89.0738 78.06 87.95 79.1838 87.95 80.57C87.95 81.9562 89.0738 83.08 90.46 83.08Z" fill="#FF0000" stroke="white" stroke-width="2" stroke-miterlimit="10"/>
<path d="M74.87 40.57C76.2562 40.57 77.38 39.4462 77.38 38.06C77.38 36.6738 76.2562 35.55 74.87 35.55C73.4838 35.55 72.36 36.6738 72.36 38.06C72.36 39.4462 73.4838 40.57 74.87 40.57Z" fill="#FF0000" stroke="white" stroke-width="2" stroke-miterlimit="10"/>
</svg>
