<svg width="1107" height="818" viewBox="0 0 1107 818" fill="none" xmlns="http://www.w3.org/2000/svg">
<path d="M160.096 204.25C154.579 200.113 141.848 188.018 137.392 187.488C132.724 186.957 126.677 170.301 121.266 167.755C115.856 165.209 107.262 183.987 105.565 186.745C103.868 189.503 98.8812 201.28 99.73 204.356C100.579 207.433 96.6533 210.616 95.168 215.284C93.6828 219.952 94.5315 223.877 93.0462 226.635C91.5609 229.394 85.7259 230.561 81.0579 230.773C76.496 230.985 61.5371 238.942 58.4605 241.382C55.3838 243.822 47.8513 254.75 47.8513 254.75C47.8513 254.75 35.1204 254.856 32.4681 254.75C29.8158 254.643 32.8925 249.551 32.4681 247.005C32.0437 244.459 29.3915 233.743 29.3915 233.743L30.9828 220.482C30.9828 220.482 34.696 209.767 35.1204 208.494C35.5447 207.221 30.9828 194.596 30.9828 194.596L56.763 186.321L79.1483 193.641C79.1483 193.641 76.0716 185.366 74.6924 183.881C73.3132 182.395 74.7985 172.847 74.6924 171.256C74.5863 169.664 78.5117 164.466 78.5117 164.466L70.0244 160.222C70.0244 160.222 66.3112 153.008 64.7198 148.87C63.1285 144.733 51.7767 148.128 48.2757 148.87C44.7747 149.613 8.1732 142.399 6.26356 143.248C4.35392 144.096 6.47574 127.334 6.47574 127.334C6.47574 127.334 2.97473 101.129 1.70164 100.705C0.428542 100.281 44.8808 93.3848 44.8808 93.3848L49.761 97.5223L46.8965 116.3C46.8965 116.3 130.178 122.984 138.135 124.576C146.092 126.167 106.838 102.933 107.581 101.766C108.429 100.493 139.09 76.0919 139.09 76.0919L134.952 70.363C134.952 70.363 137.18 72.4848 143.864 75.031C150.548 77.5772 146.834 70.363 149.062 63.7853C151.184 57.3137 149.168 53.4945 153.837 47.2351C158.611 40.9757 159.247 35.3528 161.157 29.4117C163.066 23.4706 165.825 19.4392 166.461 18.06C167.098 16.7869 173.888 18.06 173.888 18.06C173.888 18.06 183.012 33.5493 184.815 38.0051C186.725 42.461 190.014 41.9305 197.97 42.7792C205.927 43.628 204.654 44.795 209.11 43.9462C213.46 43.2036 210.808 51.1604 213.46 58.1625C216.112 65.1645 216.961 69.3021 217.81 77.0467C218.658 84.7914 217.279 103.888 216.643 109.192C216.006 114.497 203.275 128.713 201.365 134.018C199.456 139.322 222.265 137.943 222.265 137.943C222.265 137.943 240.301 141.02 243.271 141.02C246.242 140.914 244.12 130.517 244.12 130.517L241.68 103.888L237.967 96.3553L232.238 77.8954L241.574 74.5005L247.303 85.4279L253.987 83.3061L260.458 70.6812C260.458 70.6812 272.234 84.0487 275.099 85.2157C277.963 86.3827 276.372 93.597 276.266 95.931C276.16 98.265 262.262 97.6284 260.458 98.5832C258.549 99.6442 276.266 104.737 276.266 104.737C276.266 104.737 285.602 117.998 287.83 117.998C290.058 117.998 299.288 124.151 301.94 123.303C304.592 122.348 313.716 112.269 313.716 112.269L336.738 111.314L364.958 96.2492L371.111 78.7442C371.111 78.7442 360.502 64.7401 357.85 62.6183C355.198 60.4965 361.563 51.797 361.563 51.797L379.705 68.4533L386.389 81.9269C392.436 76.9406 398.589 71.7422 402.514 70.4691C410.577 67.8168 450.468 56.5711 452.483 56.9955C454.499 57.3137 466.063 70.8934 468.609 73.3335C471.049 75.7736 472.959 94.6579 483.886 92.6421C494.814 90.6264 532.794 87.868 534.704 85.6401C536.614 83.4122 550.83 72.697 550.406 66.7559C549.981 60.8148 548.496 60.1782 550.406 53.6005C552.315 47.0229 562.182 48.1899 563.985 47.2351C565.789 46.2803 582.127 39.9148 593.267 32.7006C604.406 25.5924 606.528 5.22293 613.53 3.41938C620.532 1.61583 625.518 1.61583 631.672 8.29958C637.825 15.0894 644.296 12.225 642.387 19.0148C640.477 25.8046 652.678 44.0523 670.077 37.899C687.369 31.7457 691.507 14.8772 707.209 10.3153C722.91 5.85948 735.747 6.38993 738.612 15.6199C741.476 24.8498 732.989 31.4275 752.191 33.0188C771.394 34.7163 785.61 31.4275 792.188 32.5945C798.765 33.7615 805.237 39.8087 809.905 42.6731C814.679 45.5376 818.817 39.3843 820.62 39.3843C822.424 39.3843 833.139 40.4452 833.139 40.4452C834.624 44.4767 839.717 46.0681 840.459 46.2803C841.308 46.5985 846.188 48.0838 849.689 45.7498C852.023 44.1584 852.235 42.0366 854.145 41.8244C855.736 41.7183 857.116 42.9914 858.389 44.3706C861.253 47.3412 861.041 48.9325 862.844 51.3726C865.709 54.9797 870.165 56.0406 874.09 56.9955C876.636 57.632 878.652 57.7381 881.941 57.8442C902.416 58.4807 906.13 55.5102 912.283 58.6929C913.556 59.3295 915.36 60.4965 917.057 59.8599C919.709 58.799 918.861 54.4493 921.831 52.5396C923.741 51.3726 926.287 51.6909 927.984 52.5396C932.228 54.5554 930.531 59.6478 934.774 65.695C938.7 71.2117 942.095 69.7264 946.02 75.7736C946.975 77.1528 949.627 81.2904 949.627 86.701C949.733 92.6421 946.657 93.0665 944.004 103.994C943.262 107.071 943.049 108.874 941.776 112.375C940.397 116.194 939.124 118.21 938.169 120.226C937.321 121.923 930.743 134.973 935.093 145.688C936.578 149.295 938.169 149.931 938.169 153.008C938.275 155.873 936.896 157.252 933.713 163.935C931.273 168.922 930.106 171.468 930.637 172.847C932.334 177.727 943.368 178.364 943.262 178.682C943.156 179 934.774 177.197 934.032 179C933.607 179.955 936.154 181.122 936.047 182.926C935.835 185.578 930.212 185.79 926.181 189.079C921.407 193.004 918.542 201.704 921.937 207.009C925.332 212.207 934.138 213.056 939.973 210.616C947.93 207.327 948.142 199.052 955.144 197.779C959.494 196.93 961.191 199.794 966.708 201.386C981.454 205.841 988.457 191.625 1002.14 194.702C1014.34 197.354 1020.92 211.358 1027.18 208.388C1029.51 207.327 1029.94 204.781 1032.8 204.462C1036.2 204.144 1037.36 207.645 1041.82 208.388C1045.64 209.024 1046.28 206.69 1050.2 206.69C1055.93 206.69 1061.24 211.677 1063.68 216.238C1066.65 221.543 1064.1 223.453 1067.07 228.015C1070.25 233.001 1074.18 232.364 1078.85 237.138C1082.24 240.639 1083.3 244.353 1085.11 250.93C1088.39 262.919 1086.17 266.526 1088.5 278.938C1089.99 286.577 1092.11 292.2 1094.12 297.398C1099.64 311.615 1103.46 314.161 1104.2 323.178C1104.73 329.968 1102.61 329.438 1101.97 339.41C1100.81 356.597 1107.17 358.931 1104.2 370.177C1102.72 375.8 1101.23 374.951 1095.18 389.804C1092.43 396.487 1092.53 397.23 1091.05 399.034C1084.79 406.46 1076.94 402.216 1070.46 408.794C1064.63 414.735 1067.6 421.843 1061.66 424.92C1058.37 426.617 1056.89 424.708 1050.2 425.026C1039.59 425.557 1031.85 431.073 1029.41 432.877C1023.47 437.227 1020.07 442.213 1018.16 445.183C1013.71 451.867 1015.3 453.034 1011.37 458.02C1005.64 465.553 999.596 466.402 999.596 470.857C999.596 472.979 1000.98 474.04 1004.05 477.541C1014.13 488.787 1011.8 491.439 1019.44 498.229C1025.59 503.64 1028.45 503.215 1029.94 507.247C1031.74 512.445 1028.77 517.856 1026.54 521.993C1021.45 531.33 1016.78 530.799 1014.24 538.013C1012.33 543.53 1014.98 543.848 1013.07 553.715C1012.22 558.383 1011.27 563.369 1007.98 568.78C1004.58 574.403 1001.51 575.888 1001.93 578.752C1002.35 580.768 1004.58 583.102 1012.01 584.906C1012.54 585.86 1027.39 603.472 1027.39 604.532C1026.97 607.291 1036.2 625.326 1029.73 625.645C1026.44 626.918 1005.96 624.796 1005.96 630.843C1005.54 631.798 1000.34 653.865 999.914 654.82C998.853 657.366 993.655 667.232 992.276 669.779C990.366 672.643 986.122 675.614 984.213 678.372C983.895 679.539 977.635 694.604 978.59 695.453C977.529 700.969 977.635 723.991 974.665 728.341C973.816 730.463 971.8 734.282 970.739 736.298C970.739 740.223 970.845 748.392 970.739 752.424C971.588 756.349 973.498 753.378 972.861 759.426C983.576 766.216 1020.6 776.506 1033.76 780.326C1035.45 778.204 1048.08 823.293 1048.61 823.717H1050.73C1051.79 826.369 1053.07 830.295 1049.03 831.143C1047.44 832.629 1043.41 835.599 1041.5 836.766C1038.11 842.283 1035.45 835.705 1030.79 837.191C1025.38 838.039 1021.34 840.161 1017.95 844.511C1015.93 848.118 1016.89 853.635 1011.58 854.802L1009.78 852.68C1005.43 858.197 995.777 846.208 989.73 853.741C986.653 857.03 992.064 861.485 988.35 864.244C994.716 873.474 983.258 876.02 980.5 883.552C979.333 886.523 975.301 885.886 972.755 885.993C966.496 886.947 958.645 881.218 953.552 878.248C950.582 875.808 947.93 871.14 943.474 872.307C943.898 873.58 942.731 875.277 941.882 876.02C941.458 876.444 936.26 887.372 935.835 887.902C936.366 891.085 931.167 893.207 930.531 896.177C929.576 898.405 926.817 896.92 925.332 898.299C923.529 899.148 923.953 901.164 923.953 902.755C923.316 909.439 897.218 903.073 891.701 912.303C890.004 912.728 893.08 935.961 892.762 937.235C892.02 940.948 886.397 944.767 883.108 946.146C883.638 947.632 881.941 950.708 881.304 951.981C880.88 953.467 882.365 956.543 883.108 957.816C883.108 959.62 883.108 962.06 883.108 963.864C882.153 964.818 880.349 966.622 879.395 967.471C879.395 968.425 879.395 970.441 879.395 971.396L877.273 973.2C876.318 973.2 874.514 973.2 873.56 973.2C872.499 973.306 870.907 973.2 870.377 972.139C869.422 970.972 866.982 971.396 865.603 971.29C866.027 972.669 864.648 974.473 863.799 975.215C863.269 977.549 866.133 980.52 865.603 982.854C866.239 984.976 864.011 987.31 863.799 989.325C863.905 991.766 863.057 995.16 865.603 996.646C866.558 999.51 860.617 1001.42 861.677 1004.28C857.964 1009.69 863.587 1010.76 859.874 1016.17H858.07C858.495 1012.98 854.994 1009.38 854.145 1006.41C852.341 1006.72 851.387 1005.98 850.432 1004.6C850.326 1004.28 844.809 1001 844.385 1000.68V1002.48C841.626 1002.16 838.762 1005.03 835.897 1004.28C833.563 1004.28 833.351 1007.15 830.699 1006.41C828.895 1007.79 827.622 1011.07 824.864 1010.33C824.121 1006.83 826.455 1004.5 828.789 1002.37C830.168 1002.8 831.866 1001.53 832.715 1000.57C831.866 999.298 830.911 995.797 828.789 996.646C831.547 994.1 833.245 989.432 836.322 986.991C840.884 983.49 840.565 982.536 840.353 977.125H838.55L840.353 975.321H838.55V973.2C837.595 973.2 835.579 973.2 834.624 973.2V971.396H836.428V969.592C838.337 970.017 839.398 968.85 840.353 967.471C840.353 966.516 840.353 964.712 840.353 963.864C841.414 962.909 843.005 961.53 842.475 959.938H840.353V957.816C839.398 957.816 837.383 957.816 836.428 957.816V956.013C838.231 956.013 840.777 956.013 842.581 956.013L840.459 954.209C841.414 954.209 843.43 954.209 844.385 954.209V952.087C843.324 951.239 842.157 949.86 842.581 948.48C840.671 948.905 839.61 947.738 838.656 946.358H840.459C839.504 945.085 838.125 944.131 836.534 944.555C835.685 945.616 834.412 946.783 832.821 946.358C832.821 948.268 832.821 951.027 832.821 953.042C832.927 955.164 829.956 955.694 830.699 957.922H828.895V960.044H827.092V961.848C825.712 960.787 824.545 959.832 824.97 957.922H823.166V956.119H824.97C824.97 953.785 824.97 950.92 824.97 948.48C824.015 948.48 821.999 948.48 821.044 948.48C820.832 945.722 821.999 942.221 819.241 940.523H821.044C821.044 939.569 821.044 937.553 821.044 936.598C822.742 937.022 824.015 936.068 824.97 934.795C825.925 934.795 827.94 934.795 828.895 934.795C828.895 931.718 828.895 928.111 828.895 925.034L830.699 926.838V924.716H832.821C832.821 923.761 832.821 921.745 832.821 920.79C835.473 920.684 838.868 921.639 840.459 918.987C841.414 918.987 843.43 918.987 844.385 918.987C845.658 917.289 848.946 915.592 848.31 913.152C849.901 913.682 851.174 912.197 852.023 911.03C852.978 911.03 854.994 911.03 855.949 911.03C855.949 910.075 855.949 908.272 855.949 907.423H858.07C858.07 906.468 858.07 904.452 858.07 903.498H859.874C859.874 901.8 859.874 899.466 859.874 897.663H858.07C859.025 896.814 860.404 895.116 859.874 893.737H858.07V891.934C857.116 890.873 855.736 889.281 854.145 889.812V891.934H852.023V893.737L850.22 891.934C850.644 893.419 849.477 894.692 848.416 895.541V897.663L850.22 895.541C848.628 895.01 847.143 896.602 846.294 897.663C844.597 894.48 841.626 895.753 838.656 895.541C838.656 894.586 838.656 892.782 838.656 891.934C839.61 891.085 840.99 889.388 840.459 888.008H838.656V886.205C837.701 885.144 836.322 883.552 834.73 884.083C834.73 881.749 834.73 878.884 834.73 876.444H836.534C836.534 875.489 836.534 873.474 836.534 872.519C835.261 871.564 834.306 870.291 834.73 868.594H836.534C836.534 865.623 836.534 861.804 836.534 858.833H834.836C835.261 857.348 834.094 855.969 833.033 855.226C833.033 852.786 833.033 849.815 833.033 847.269C834.412 845.678 837.276 843.874 836.746 841.434C837.701 841.434 839.717 841.434 840.671 841.434V843.238C843.111 843.238 846.082 843.238 848.628 843.238C847.992 840.798 851.174 839.206 852.341 837.403C852.341 831.674 852.341 825.733 852.341 820.004H850.538V817.882H848.734V816.078C847.037 816.078 844.597 816.078 842.899 816.078C843.536 813.108 840.141 813.214 840.777 810.243C839.398 810.668 837.701 809.289 836.852 808.44H834.836V806.318H833.033C833.563 804.727 831.972 803.241 830.911 802.393C830.38 800.801 831.866 799.528 833.033 798.785C833.033 797.088 833.033 794.754 833.033 792.95C831.017 793.375 830.062 792.208 829.001 790.723C827.728 789.131 824.439 787.434 825.076 784.994H823.272C822.424 784.039 820.726 782.66 819.347 783.19C818.286 781.811 817.331 780.644 815.422 781.068C813.406 784.145 811.815 783.721 809.587 781.068C808.632 781.068 806.616 781.068 805.661 781.068V783.19C804.706 783.19 802.903 783.19 801.948 783.19V784.994H799.826H798.023V783.19H799.826C799.932 780.856 800.144 778.84 798.023 777.355C798.023 776.4 798.023 774.385 798.023 773.43H799.826C799.826 770.671 799.296 769.292 801.948 767.595C801.524 766.003 803.009 763.139 803.752 761.76C803.752 760.805 803.752 758.789 803.752 757.834H805.555V755.712C805.449 751.257 808.526 755.076 807.677 746.27H809.48V744.149H811.602V742.345C811.602 743.3 811.602 745.316 811.602 746.27H809.48C809.48 747.225 809.48 749.029 809.48 749.877C810.541 750.832 812.133 752.212 811.602 753.803C810.223 754.864 809.056 755.819 809.48 757.728C807.253 759.213 807.571 761.123 807.677 763.563C808.207 765.155 806.616 766.64 805.555 767.489C805.555 768.443 805.555 770.247 805.555 771.096H807.677V773.218C808.738 773.005 810.223 773.536 810.86 774.385C814.891 776.825 822.105 772.581 825.076 777.143L829.001 775.021C830.699 775.021 833.139 775.021 834.836 775.021V773.218H836.64V771.096H838.762V769.292C840.459 769.292 842.899 769.292 844.597 769.292C846.082 767.064 847.992 767.383 850.432 767.489V765.367C851.387 765.367 853.402 765.367 854.357 765.367C855.312 764.094 856.585 763.139 858.282 763.563V761.76H860.086V759.638H861.89C860.616 758.683 859.662 757.304 860.086 755.712C859.131 754.439 857.858 753.485 856.161 753.909C856.161 752.954 856.161 750.938 856.161 749.984V752.105C857.964 749.771 859.131 749.877 861.996 749.984C862.844 749.029 864.542 747.65 865.921 748.18V746.376C866.876 745.528 868.255 743.83 867.725 742.451H865.921C865.921 741.496 865.921 739.48 865.921 738.526H867.725V736.722C869.634 737.04 870.589 736.192 871.544 734.706C873.772 733.433 874.09 731.099 873.772 728.765H875.575C873.347 727.28 873.666 725.37 873.772 722.93H871.65C871.65 721.975 871.65 719.96 871.65 719.005H869.846C874.727 714.549 873.878 715.822 873.772 709.245C873.772 707.229 873.878 705.107 873.772 702.985C873.666 701.606 873.984 701.924 872.817 701.606C872.074 701.394 871.013 701.606 870.271 701.606C870.165 701.606 870.059 701.606 869.953 701.5C869.846 701.394 869.846 701.288 869.846 701.182C869.846 700.015 869.846 698.848 869.846 697.681C869.104 697.681 868.467 697.681 867.725 697.681C867.725 696.514 867.725 695.347 867.725 694.286C867.725 694.18 867.725 693.967 867.619 693.861C867.406 693.543 866.876 693.861 866.452 693.755C866.027 693.755 865.815 693.331 865.815 693.013C865.815 692.694 865.921 692.27 866.027 691.952C866.558 691.952 867.088 691.952 867.512 691.846C866.027 689.405 863.057 686.965 860.935 685.056C859.343 683.677 860.935 681.024 859.45 679.539C858.495 678.902 858.07 677.417 858.282 676.356C855.312 674.659 855.1 670.415 852.129 668.718C851.493 665.004 854.888 666.384 854.251 662.67H856.055C856.055 660.973 856.055 658.639 856.055 656.835C857.009 656.835 859.025 656.835 859.98 656.835V655.032H861.784C861.253 653.653 863.269 650.364 863.905 649.197V651H861.784C861.784 652.698 861.784 655.032 861.784 656.835C864.754 658.745 863.799 661.716 863.905 664.792H865.709V662.67C867.406 662.67 869.846 662.67 871.544 662.67H869.74C870.695 664.262 872.393 665.323 873.666 666.596C874.833 667.657 875.681 669.142 875.575 670.627C875.575 669.991 875.575 669.46 875.575 668.824C876.955 669.672 876.742 670.733 877.485 671.794C878.122 672.643 878.97 672.643 880.349 672.537C880.88 672.537 881.623 672.219 881.516 671.688C881.516 671.37 881.304 671.158 881.41 670.84C881.623 670.415 882.153 670.627 882.577 670.627C883.214 670.627 883.638 669.885 883.32 669.354C883.002 668.718 882.153 668.718 881.516 668.824C882.047 668.187 882.471 667.657 883.002 667.02C883.108 666.914 883.214 666.808 883.214 666.702C883.214 666.596 883.108 666.49 883.002 666.384C882.683 666.065 882.259 665.641 881.941 665.323C883.002 666.596 884.169 667.657 885.336 668.718C886.291 666.278 883.214 664.686 884.593 662.034C885.124 661.079 888.306 657.048 889.367 657.048H887.245L889.367 655.244C890.216 656.305 891.595 657.472 893.08 657.048C890.428 655.032 888.943 652.38 891.277 649.409V651.213L889.473 649.409C891.171 649.939 892.444 648.242 893.293 647.075C894.141 645.802 895.839 643.044 895.308 641.452L897.112 643.574C896.157 642.725 894.778 641.028 895.308 639.649L893.187 637.845C890.534 638.057 886.078 636.784 884.063 639.012C883.851 639.224 883.002 641.452 883.426 641.452C882.471 641.452 880.668 641.452 879.713 641.452V643.574H877.591V645.378H879.713C880.243 646.969 878.652 648.454 877.591 649.303C876.424 648.136 873.984 644.423 871.756 645.378C870.801 646.651 869.528 647.605 867.831 647.181C868.679 646.226 870.377 644.847 871.756 645.378V643.574C873.666 643.998 874.621 642.937 875.681 641.558C876.742 640.71 878.015 639.33 877.591 637.845H879.713C879.713 636.042 880.137 634.026 878.652 632.647C877.909 631.904 876.848 631.586 875.788 631.798C875.788 632.541 875.788 633.283 875.788 633.92C875.151 633.92 874.514 633.92 873.984 633.92C873.984 633.177 873.984 632.541 873.984 631.798C872.817 631.904 871.756 631.904 870.589 631.692C869.422 631.48 868.467 630.843 867.831 629.994C868.573 629.994 869.21 629.994 869.953 629.994C869.953 629.358 869.953 628.827 869.953 628.191C870.589 628.191 871.226 628.191 871.756 628.191C871.756 628.827 871.756 629.358 871.756 629.994C873.029 629.994 874.408 629.994 875.681 629.994C875.681 629.358 875.681 628.827 875.681 628.191C876.212 628.191 879.289 628.509 879.713 628.191C880.668 627.342 882.047 625.645 881.516 624.265H883.32C883.32 621.931 883.744 619.916 881.516 618.43H883.32V616.309C885.018 616.733 886.291 615.672 887.245 614.505C888.306 614.611 889.898 614.505 890.428 613.444C891.489 612.489 891.171 610.474 891.277 609.307C891.277 607.503 893.611 605.487 892.55 603.578C892.02 602.517 890.959 600.183 891.277 598.91L889.473 597.106V594.984C888.625 594.029 886.927 592.756 885.548 593.181V590.528L883.426 592.332C882.471 592.332 880.668 592.332 879.713 592.332V590.528H881.516C882.259 587.876 878.97 586.179 877.591 584.481C876 581.829 872.605 582.784 869.953 582.678V580.874H871.756C871.013 577.373 874.514 578.328 873.878 575.039C874.514 571.326 871.12 572.705 871.756 568.992C872.18 565.173 868.786 565.173 865.921 565.385C864.011 561.99 859.343 563.581 856.161 563.263C854.781 563.687 851.599 561.99 850.326 561.459V559.656H848.522V557.534H846.4V555.73C847.355 555.73 849.371 555.73 850.326 555.73C851.387 554.351 852.341 553.184 854.251 553.609V551.805C859.343 552.548 860.086 550.108 861.89 545.97C862.844 545.97 864.86 545.97 865.815 545.97V543.848C866.77 545.121 868.043 546.076 869.74 545.652V547.455C874.833 547.455 880.243 547.455 885.336 547.455C886.397 548.835 887.352 550.002 889.261 549.577C891.383 549.577 894.778 549.577 896.9 549.577V547.455C897.855 547.455 899.87 547.455 900.825 547.455C900.189 542.151 907.297 544.167 910.586 543.848C910.161 545.97 912.071 547.986 914.299 547.455C913.344 555.2 918.648 552.972 924.059 553.29C925.863 552.123 927.454 549.047 929.894 549.683V547.561H932.016V545.758H933.819V541.726H935.941C935.517 540.347 936.896 538.65 937.745 537.801H935.941C935.517 535.679 937.427 533.664 939.654 534.194V532.072C940.503 531.542 945.383 530.799 945.914 529.738C946.444 529.102 949.203 526.555 949.839 526.025C952.492 524.434 958.963 521.887 961.403 520.084C965.116 516.477 972.012 508.838 974.24 504.17C975.195 502.791 973.71 500.775 973.285 499.608C972.967 498.972 972.967 495.895 973.073 495.152C972.967 493.137 973.073 490.378 974.346 488.681C975.301 487.302 973.816 485.392 973.391 484.119C972.967 483.482 973.073 477.329 973.179 476.48C973.498 475.207 969.891 471.282 969.466 470.221C968.936 469.478 967.663 464.704 967.344 463.855C965.753 458.339 957.796 450.488 953.659 446.669C953.871 444.653 952.81 441.258 950.688 440.515C948.778 440.303 944.322 437.863 942.837 439.985C940.928 442.107 936.047 444.547 933.607 445.926C932.122 446.881 930.318 445.502 928.939 444.865C927.984 444.229 925.332 444.759 924.271 444.547C921.407 444.335 921.831 448.684 918.967 448.472C916.527 449.109 914.511 446.138 913.026 444.759C912.92 444.547 907.403 441.152 906.978 440.834C903.053 440.834 903.902 443.804 899.022 440.834V442.637H897.218V444.441H895.308V446.563C893.505 444.229 892.338 444.335 889.473 444.441V446.563C888.519 446.563 886.503 446.563 885.548 446.563C883.957 448.048 880.986 449.851 881.623 452.398C880.668 452.398 878.652 452.398 877.697 452.398V450.488C876.53 450.7 875.363 450.382 874.833 449.321C873.878 447.942 871.438 448.472 870.059 448.366C870.483 450.276 869.316 451.337 867.937 452.292C867.937 451.337 867.937 449.321 867.937 448.366C866.239 448.366 863.905 448.366 862.102 448.366V450.488C861.147 450.488 859.343 450.488 858.389 450.488L860.192 448.366C860.192 447.411 860.192 445.396 860.192 444.441C862.844 440.621 865.815 444.759 868.043 440.197C869.104 437.863 870.483 433.619 869.953 430.967C870.377 426.724 869.422 422.055 865.921 419.297C864.966 418.448 863.693 416.751 864.117 415.372C862.738 414.523 857.964 410.492 856.161 411.446V409.643C855.206 410.916 853.827 411.871 852.235 411.446C850.75 413.674 848.84 413.356 846.4 413.25C843.96 413.25 841.202 413.25 838.762 413.25V415.372C837.807 415.372 835.791 415.372 834.836 415.372C833.139 407.415 843.005 409.537 842.793 403.808C842.263 400.307 845.87 396.7 846.506 393.411C846.506 391.289 846.506 388.212 846.506 386.091C847.567 384.181 849.583 380.362 850.432 378.452C850.22 375.269 850.432 371.45 852.235 368.692C854.039 368.692 856.585 368.692 858.389 368.692C861.147 365.084 866.027 361.902 867.619 357.446C870.695 354.688 872.393 349.595 873.666 345.67C874.727 343.76 879.925 339.304 881.41 337.607C881.835 337.183 891.277 325.619 891.701 325.725C896.794 323.497 903.053 319.571 904.963 314.055C906.024 312.145 907.721 308.326 908.676 306.31C909.312 305.143 911.328 301.96 910.798 300.581C911.752 299.732 913.026 298.035 912.601 296.656C910.373 295.17 910.692 293.261 910.798 290.821H912.601C913.026 288.274 912.071 284.986 910.692 282.758L908.57 279.257C908.57 278.302 908.57 276.286 908.57 275.331C907.615 274.483 906.236 272.785 906.766 271.406C905.493 269.708 902.204 268.011 902.841 265.571C907.827 266.314 906.766 260.903 906.766 257.614C903.796 254.856 900.931 251.249 897.006 249.975V248.172C896.051 248.172 894.035 248.172 893.08 248.172V246.05C894.035 246.05 896.051 246.05 897.006 246.05V244.247C895.521 244.777 893.823 243.08 893.08 242.125C892.126 242.125 890.322 242.125 889.367 242.125L887.245 240.321C887.245 239.366 887.245 237.351 887.245 236.396C886.185 235.229 884.381 233.531 883.108 232.577C881.835 231.728 878.864 230.773 879.607 228.757C876.848 228.757 873.241 228.757 870.483 228.757C862.95 226.423 852.766 218.466 844.491 218.997C842.263 218.997 838.762 218.997 836.534 218.997C834.624 219.209 831.441 218.36 829.956 219.846C829.426 220.8 828.153 221.013 827.092 220.906V223.028H824.97V220.906C822.105 221.119 818.71 221.013 819.135 217.299H817.331C817.543 216.769 818.392 214.223 817.331 213.374C816.483 212.631 814.997 213.268 812.239 214.329C810.648 214.965 809.162 215.496 807.571 216.557C801.524 220.376 800.463 226.317 796.75 227.484C795.476 227.908 791.339 228.439 777.971 212.101C767.362 199.052 768.635 197.036 761.527 189.716C750.918 178.894 739.885 174.863 737.551 174.014C728.427 170.831 721.425 171.15 715.059 171.044C689.81 170.619 685.778 163.617 663.393 161.389C630.611 157.994 631.884 171.998 602.709 168.073C578.626 164.89 560.166 152.902 549.663 162.132C547.753 163.829 546.586 165.739 540.115 171.998C531.097 180.698 527.808 182.501 524.413 182.395C520.7 182.395 521.231 180.38 516.032 179.213C508.181 177.515 505.105 181.547 495.769 180.167C491.631 179.531 492.374 178.788 488.661 178.258C481.977 177.409 477.945 179.743 469.882 182.183C469.458 182.289 460.546 184.942 451.529 185.896C448.664 186.215 442.829 185.896 431.053 185.154C419.913 184.517 405.273 183.562 400.499 180.061C399.968 179.743 398.801 178.682 396.785 178.258C395.406 177.939 394.982 178.152 390.95 178.258C389.677 178.258 388.298 178.258 387.025 178.258C385.752 178.258 384.373 178.364 383.1 178.258C379.387 178.152 378.538 177.515 377.265 178.258C376.204 178.894 376.522 179.637 375.461 180.061C374.719 180.38 374.506 180.061 371.536 180.061C370.369 180.061 370.369 180.061 369.414 180.061C368.035 180.061 367.929 179.955 367.61 180.061C366.549 180.486 366.868 181.759 365.807 182.183C365.489 182.289 365.382 182.183 363.685 182.183C362.624 182.183 362.094 182.183 361.881 182.183C360.078 182.395 359.76 183.668 357.956 183.987C357.001 184.199 357.107 183.881 356.153 183.987C354.561 184.199 354.243 185.048 352.227 186.109C350.105 187.169 349.681 186.851 348.302 187.912C347.665 188.443 347.984 188.336 346.498 189.716C345.331 190.883 344.801 191.095 344.695 191.837C344.589 192.156 344.589 192.686 344.695 193.641C344.801 194.914 344.907 195.232 344.695 195.445C344.27 195.869 343.422 195.126 342.573 195.445C341.512 195.869 341.724 197.142 340.769 197.566C339.814 197.885 339.072 197.142 338.647 197.566C338.329 197.885 338.86 198.521 338.647 199.37C338.329 200.431 337.268 200.431 336.844 201.492C336.632 202.128 336.844 202.34 336.844 203.295C336.844 205.842 335.146 206.372 335.04 209.13C335.04 209.661 335.04 209.873 335.04 210.934C335.04 212.525 334.934 212.631 335.04 213.056C335.465 214.223 336.95 214.647 336.844 214.859C336.738 215.071 335.571 214.435 335.04 214.859C334.616 215.284 334.722 216.238 335.04 216.981C335.677 218.148 336.95 218.572 336.844 218.785C336.738 218.997 335.571 218.36 335.04 218.785C334.616 219.209 334.616 220.27 335.04 220.588C335.571 221.013 336.632 220.27 336.844 220.588C337.056 220.906 336.313 222.392 335.04 222.71C334.192 222.922 333.767 222.498 332.919 222.71C332.282 222.922 331.858 223.453 331.115 224.514C330.266 225.787 329.418 226.848 329.311 228.439C329.205 229.182 329.311 230.03 329.311 230.242C329.418 231.622 329.63 232.046 329.311 232.364C328.887 232.789 328.144 232.046 327.19 232.364C326.447 232.577 326.553 233.107 325.386 234.168C324.113 235.335 323.582 235.229 323.264 235.971C323.158 236.396 323.264 236.502 323.264 238.093C323.264 238.093 323.264 238.73 323.264 239.897C323.264 241.17 323.264 242.549 323.264 243.822C323.264 245.626 323.264 245.626 323.264 245.626C323.37 248.384 323.689 248.808 323.264 249.551C322.734 250.612 321.885 250.294 321.461 251.355C320.718 252.946 322.097 254.75 321.461 255.28C320.93 255.598 320.082 254.856 319.657 255.28C319.445 255.492 319.551 255.917 319.657 257.084C319.763 258.251 319.763 258.887 319.657 259.205C319.233 260.266 317.96 259.948 317.535 261.009C317.323 261.433 317.535 261.433 317.535 263.131C317.535 264.616 317.429 264.616 317.535 264.934C317.96 265.995 319.233 265.783 319.657 266.738C319.975 267.481 319.339 267.905 319.657 268.86C319.869 269.708 320.612 270.451 321.461 270.663C322.416 270.875 322.946 270.345 323.264 270.663C323.689 271.088 322.84 272.042 323.264 272.467C323.582 272.891 324.325 272.361 325.386 272.467C327.19 272.679 327.402 274.376 329.311 274.589C329.524 274.589 330.054 274.589 331.115 274.589C332.706 274.589 332.706 274.483 332.919 274.589C334.086 274.907 333.979 276.074 335.04 276.392C335.359 276.498 335.889 276.498 336.844 276.392C338.117 276.286 338.435 276.18 338.647 276.392C338.966 276.604 338.754 277.029 338.647 278.514C338.541 279.575 338.541 279.999 338.647 280.318C338.966 281.166 339.602 281.166 340.769 282.121C341.512 282.758 342.255 283.394 342.573 284.243C342.785 284.879 342.573 284.88 342.573 287.85C342.573 289.441 342.679 289.335 342.573 289.972C342.467 291.139 342.255 291.563 342.573 291.775C343.103 292.2 344.27 291.351 344.695 291.775C345.119 292.2 344.376 293.049 344.695 293.897C345.119 294.852 346.392 294.534 348.408 295.701C349.893 296.55 350.53 297.61 350.53 297.504C350.636 297.398 349.787 296.019 348.408 295.701C347.559 295.489 347.241 296.019 346.604 295.701C345.649 295.276 345.756 294.322 344.801 293.897C344.483 293.791 344.483 293.897 342.679 293.897C341.724 293.897 341.3 293.897 340.875 293.897C339.39 293.791 338.966 293.579 338.754 293.897C338.329 294.322 339.178 295.383 338.754 295.701C338.329 296.125 337.268 295.276 336.95 295.701C336.526 296.125 337.374 297.08 336.95 297.504C336.526 298.035 335.146 297.61 335.146 297.504C335.146 297.398 336.526 296.974 336.95 297.504C337.268 297.823 337.056 298.247 336.95 299.626C336.95 300.157 336.844 301.43 336.95 301.43C337.056 301.43 337.48 300.157 336.95 299.626C336.632 299.308 335.677 299.308 335.146 299.626C333.661 300.475 334.298 302.703 333.025 303.233C332.812 303.339 332.919 303.233 331.221 303.233C329.63 303.233 329.63 303.339 329.418 303.233C328.251 302.915 328.357 301.748 327.296 301.43C327.084 301.324 327.19 301.43 325.492 301.43C324.75 301.43 324.113 301.43 323.37 301.43C322.734 301.43 322.097 301.43 321.567 301.43C320.93 301.43 320.294 301.43 319.763 301.43C319.021 301.43 318.384 301.43 317.641 301.43C315.838 301.43 315.838 301.43 315.838 301.43C314.565 301.324 314.246 301.218 314.034 301.43C313.504 301.854 313.928 303.233 314.034 303.233C314.14 303.233 314.353 301.536 314.034 301.43C313.716 301.324 313.292 302.915 311.912 303.233C311.064 303.445 310.852 303.021 310.109 303.233C309.26 303.445 309.26 304.082 307.987 305.355C306.82 306.522 306.396 306.416 306.184 307.159C306.077 307.477 306.184 307.477 306.184 309.28C306.184 309.917 306.184 310.447 306.184 311.084C306.184 312.888 306.184 312.888 306.184 312.888C306.29 314.373 306.502 314.797 306.184 315.009C305.759 315.434 304.804 314.585 304.38 315.009C304.062 315.328 304.592 315.964 304.38 316.813C304.062 317.98 302.47 318.617 302.258 318.617C301.303 318.935 300.455 318.829 298.545 318.617C297.272 318.51 296.635 318.298 296.423 318.617C295.999 319.147 296.848 320.314 296.423 320.738C296.105 321.057 295.468 320.526 294.62 320.738C293.559 321.057 293.559 322.224 292.498 322.542C291.649 322.754 291.013 322.224 290.694 322.542C290.376 322.754 290.588 323.178 290.694 324.664C290.694 325.619 290.694 325.512 290.694 326.467C290.8 327.74 290.906 328.059 290.694 328.271C290.27 328.695 289.315 327.846 288.891 328.271C288.466 328.695 289.315 329.968 288.891 330.393C288.572 330.817 287.83 330.074 286.769 330.393C285.92 330.605 285.177 331.347 284.965 332.196C284.753 333.151 285.284 333.681 284.965 334C284.541 334.424 283.586 333.575 283.162 334C282.737 334.424 283.586 335.697 283.162 336.122C282.737 336.546 281.995 335.803 281.04 336.122C280.085 336.44 280.191 337.501 279.236 337.925C278.282 338.349 277.539 337.501 277.115 337.925C276.372 338.562 277.963 341.002 277.115 341.851C276.69 342.275 275.629 342.275 275.311 341.851C274.781 341.32 275.205 340.047 275.311 340.047C275.417 340.047 275.841 341.426 275.311 341.851C274.781 342.275 273.826 341.426 273.507 341.851C273.083 342.169 273.932 343.124 273.507 343.654C273.083 344.185 271.704 344.185 271.386 343.654C270.749 342.487 275.948 338.774 275.311 337.819C274.993 337.395 273.507 337.713 273.507 337.819C273.507 337.925 274.887 338.349 275.311 337.819C275.629 337.395 275.099 336.864 275.311 336.016C275.417 335.697 275.523 335.379 277.115 333.894C277.645 333.363 278.282 332.939 279.236 332.09C280.616 330.923 280.828 330.711 281.04 330.287C281.252 329.756 281.146 329.544 281.04 328.165C280.828 326.043 280.828 324.982 281.04 324.558C281.676 323.391 282.843 323.603 283.162 322.436C283.268 322.118 283.268 321.587 283.162 320.632C283.056 319.147 282.843 318.829 283.162 318.51C283.48 318.192 284.01 318.51 284.965 318.51C286.557 318.617 288.572 317.874 288.891 316.707C289.103 315.858 288.466 315.222 288.891 314.903C289.315 314.479 290.27 315.328 290.694 314.903C291.119 314.479 290.27 313.206 290.694 312.782C291.119 312.357 292.073 313.206 292.498 312.782C292.71 312.569 292.604 312.145 292.498 310.978C292.392 310.023 292.392 309.493 292.498 309.174C292.71 308.326 293.347 308.326 294.62 307.053C295.681 305.992 296.211 305.143 296.423 305.249C296.635 305.355 295.999 306.522 296.423 307.053C296.848 307.477 297.908 307.371 298.545 307.053C299.075 306.84 299.288 306.522 300.349 305.249C301.409 304.082 301.834 303.445 302.152 303.127C303.001 302.278 303.107 302.385 304.274 301.324C305.123 300.581 305.759 299.944 306.077 299.52C306.82 298.777 307.351 298.141 307.881 297.398C309.154 295.701 308.836 295.276 310.003 293.791C311.064 292.412 311.488 292.624 311.806 291.669C312.231 290.714 311.912 290.184 311.806 287.744C311.7 286.577 311.806 285.304 311.806 284.137C311.806 282.864 311.806 281.485 311.806 280.211C311.806 278.408 311.806 278.408 311.806 278.408C311.806 276.817 312.019 276.71 311.806 276.286C311.382 275.225 310.427 275.437 310.003 274.483C309.791 274.058 310.003 273.952 310.003 272.361C310.003 272.361 310.003 271.512 310.003 270.557C309.897 267.481 305.865 265.995 306.077 262.919C306.077 261.964 306.502 261.115 306.077 260.797C305.547 260.479 304.698 261.221 304.274 260.797C304.062 260.585 304.168 260.266 304.274 258.993C304.486 257.19 304.486 256.977 304.274 256.871C304.062 256.765 303.85 256.659 302.152 256.871C300.773 256.977 300.455 257.084 300.349 256.871C299.924 256.447 300.773 255.492 300.349 255.068C299.924 254.537 298.545 254.962 298.545 255.068C298.545 255.174 300.242 255.386 300.349 255.068C300.455 254.75 298.969 254.431 298.545 253.264C298.439 252.84 298.439 252.309 298.545 251.142C298.651 249.869 298.757 249.551 298.545 249.339C298.015 248.915 296.848 249.763 296.423 249.339C296.105 249.021 296.635 248.49 296.423 247.535C296.211 246.581 295.468 245.732 294.62 245.414C294.195 245.307 293.665 245.307 292.498 245.414C291.331 245.52 290.906 245.626 290.694 245.414C290.27 244.989 291.119 244.14 290.694 243.61C290.376 243.186 289.315 243.08 288.891 243.61C288.36 244.14 288.785 244.989 288.891 245.414C289.209 246.156 289.527 246.262 290.694 247.535C291.967 248.808 291.967 249.233 292.498 249.339C293.453 249.657 294.089 248.915 294.62 249.339C295.044 249.763 295.044 250.718 294.62 251.142C294.195 251.461 293.877 251.142 292.498 251.142C291.331 251.142 290.906 251.461 290.694 251.142C290.27 250.718 291.119 249.763 290.694 249.339C290.482 249.021 289.952 249.233 288.891 249.339C287.618 249.445 287.087 249.339 286.769 249.339C284.329 249.551 282.313 258.781 283.056 259.099C283.48 259.205 284.541 255.917 286.769 249.339C286.981 248.808 287.193 247.96 286.769 247.535C286.344 247.111 285.39 247.111 284.965 247.535C284.435 248.066 284.859 249.339 284.965 249.339C285.071 249.339 285.496 247.96 284.965 247.535C284.435 247.111 283.48 247.96 283.162 247.535C282.737 247.111 283.586 245.838 283.162 245.414C282.737 244.989 281.57 245.838 281.04 245.414C280.616 245.095 280.722 244.14 281.04 243.61C281.57 242.337 282.843 242.549 283.162 241.488C283.374 240.639 282.843 240.003 283.162 239.685C283.586 239.26 284.541 240.109 284.965 239.685C285.284 239.366 284.753 238.73 284.965 237.881C285.284 236.82 286.344 236.82 286.769 235.759C286.981 235.229 286.875 234.804 286.769 233.956C286.663 233.637 286.344 231.834 284.965 230.03C284.329 229.182 283.692 228.651 283.162 228.227C281.889 227.166 281.252 226.954 281.04 226.105C280.934 225.787 280.934 225.256 281.04 224.301C281.146 223.134 281.252 222.71 281.04 222.498C280.616 221.967 279.236 222.392 279.236 222.498C279.236 222.604 281.04 222.604 281.04 222.498C281.04 222.392 279.661 221.967 279.236 222.498C279.024 222.71 279.13 223.028 279.236 224.301C279.236 225.15 279.236 225.787 279.236 226.105C279.13 227.59 278.918 228.015 279.236 228.227C279.661 228.651 280.616 227.802 281.04 228.227C281.358 228.545 280.828 229.182 281.04 230.03C281.252 230.985 282.207 231.94 283.162 232.152C284.117 232.364 284.647 231.834 284.965 232.152C285.177 232.364 285.071 232.789 284.965 233.956C284.859 235.335 285.177 235.335 284.965 235.759C284.541 236.926 283.48 236.82 283.162 237.881C282.95 238.73 283.48 239.366 283.162 239.685C282.737 240.109 281.464 239.26 281.04 239.685C280.722 240.003 281.146 240.533 281.04 241.488C280.828 242.549 279.979 243.61 279.236 243.61C278.6 243.61 278.6 242.867 277.115 241.488C276.16 240.533 275.629 240.427 275.311 239.685C275.311 239.579 274.781 238.412 275.311 237.881C275.841 237.351 277.008 237.775 277.115 237.881C278.494 238.412 278.918 239.791 279.236 239.685C279.449 239.579 279.236 239.154 279.236 237.881C279.236 237.245 279.236 236.714 279.236 235.759C279.236 234.168 279.342 234.168 279.236 233.956C278.812 232.895 277.539 233.107 277.115 232.152C276.796 231.197 277.539 230.455 277.115 230.03C276.902 229.818 276.584 229.924 275.311 230.03C274.356 230.03 274.462 230.03 273.507 230.03C272.022 230.136 271.598 230.349 271.386 230.03C270.961 229.606 271.81 228.651 271.386 228.227C271.067 227.908 270.325 228.439 269.582 228.227C268.521 227.908 268.839 226.741 267.779 226.105C267.036 225.681 265.975 225.787 263.853 226.105C262.686 226.317 261.943 226.423 261.731 226.105C261.307 225.574 262.156 224.726 261.731 224.301C261.519 224.089 261.095 224.195 259.928 224.301C258.867 224.407 258.442 224.407 258.124 224.301C257.063 223.983 257.063 222.922 256.002 222.498C255.366 222.18 255.154 222.604 254.199 222.498C252.501 222.392 251.122 221.225 250.273 220.376C249 219.209 249.213 218.997 248.47 218.572C247.197 217.936 246.348 218.572 244.545 218.572C241.786 218.572 239.452 217.193 238.71 216.769C237.543 216.026 236.588 215.178 234.784 214.647C233.935 214.435 233.193 214.329 232.981 214.647C232.556 215.178 233.405 216.345 232.981 216.769C232.556 217.193 231.495 216.345 230.859 216.769C230.434 217.087 230.434 218.148 230.859 218.572C231.495 219.209 232.981 218.679 232.981 218.572C232.981 218.466 232.238 218.679 230.859 218.572C229.692 218.466 229.267 218.36 229.055 218.572C228.631 218.997 229.48 219.952 229.055 220.376C228.843 220.694 228.419 220.376 227.252 220.376C225.872 220.376 225.448 220.694 225.13 220.376C224.705 219.952 224.705 218.891 225.13 218.572C225.766 218.148 226.827 218.997 227.252 218.572C227.464 218.36 227.358 218.148 227.252 216.769C227.039 215.071 227.039 214.859 227.252 214.647C227.676 214.223 228.419 214.965 229.055 214.647C230.116 214.117 229.904 210.934 229.055 210.722C228.525 210.616 227.358 211.677 227.252 212.844C227.146 213.798 227.57 214.329 227.252 214.647C226.827 215.071 225.66 214.223 225.13 214.647C224.918 214.753 224.918 215.071 225.13 216.769C225.236 218.042 225.342 218.36 225.13 218.572C224.705 218.997 223.645 218.997 223.326 218.572C223.114 218.36 223.22 218.042 223.326 216.769C223.538 215.071 223.538 214.859 223.326 214.647C222.796 214.117 221.523 214.541 221.523 214.647C221.523 214.753 223.326 214.541 223.326 214.647C223.326 214.753 222.053 215.178 221.523 214.647C221.098 214.329 220.992 213.374 221.523 212.844C222.053 212.313 223.008 212.419 223.326 212.844C224.387 214.011 225.024 214.647 223.326 214.647C222.69 214.647 223.751 213.268 223.326 212.844C222.902 212.525 222.371 213.056 221.523 212.844C220.356 212.631 220.568 211.464 219.401 210.722C218.34 210.085 217.597 210.722 213.566 210.722C213.566 210.722 213.566 210.722 211.762 210.722C209.641 210.722 209.641 210.722 209.641 210.722C206.776 210.722 205.503 209.024 202.002 208.918C201.259 208.918 200.198 208.918 199.88 208.918C197.44 209.024 197.016 209.236 196.167 208.918C194.894 208.388 195.212 207.539 194.045 207.115C193.409 206.902 193.409 207.115 190.332 207.115C189.589 207.115 188.953 207.115 188.21 207.115C187.574 207.115 186.937 207.115 186.407 207.115C185.664 207.115 185.027 207.115 184.285 207.115C183.012 207.115 181.845 207.115 180.572 207.115C179.829 207.115 179.192 207.115 178.45 207.115C177.813 207.115 177.177 207.115 176.646 207.115C175.373 207.009 175.055 206.902 174.843 207.115C174.312 207.539 174.736 208.918 174.843 208.918C174.949 208.918 175.373 207.539 174.843 207.115C174.418 206.69 173.569 207.433 172.721 207.115C171.766 206.69 171.872 205.523 170.917 204.993C170.387 204.675 169.856 204.781 168.795 204.993C167.947 205.099 167.204 205.311 166.461 205.311L160.096 204.25Z" fill="#FF5C00" fill-opacity="0.5"/>
<path d="M799.826 784.994H801.948V783.19C802.903 783.19 804.706 783.19 805.661 783.19V781.068C806.616 781.068 808.632 781.068 809.587 781.068C811.815 783.721 813.406 784.145 815.422 781.068C817.331 780.644 818.286 781.811 819.347 783.19C820.726 782.66 822.424 784.039 823.272 784.994H825.076C824.439 787.434 827.728 789.131 829.001 790.723C830.062 792.208 831.017 793.375 833.033 792.95C833.033 794.754 833.033 797.088 833.033 798.785C831.866 799.528 830.38 800.801 830.911 802.393C831.972 803.241 833.563 804.727 833.033 806.318H834.836V808.44H836.852C837.701 809.289 839.398 810.668 840.777 810.243C840.141 813.214 843.536 813.108 842.899 816.078C844.597 816.078 847.037 816.078 848.734 816.078V817.882H850.538V820.004H852.341C852.341 825.733 852.341 831.674 852.341 837.403C851.174 839.206 847.992 840.798 848.628 843.238C846.082 843.238 843.111 843.238 840.671 843.238V841.434C839.717 841.434 837.701 841.434 836.746 841.434C837.276 843.874 834.412 845.678 833.033 847.269C833.033 849.815 833.033 852.786 833.033 855.226C834.094 855.969 835.261 857.348 834.836 858.833H836.534C836.534 861.804 836.534 865.623 836.534 868.594H834.73C834.306 870.291 835.261 871.564 836.534 872.519C836.534 873.474 836.534 875.489 836.534 876.444H834.73C834.73 878.884 834.73 881.749 834.73 884.083C836.322 883.552 837.701 885.144 838.656 886.205V888.008H840.459C840.99 889.388 839.61 891.085 838.656 891.934C838.656 892.782 838.656 894.586 838.656 895.541C841.626 895.753 844.597 894.48 846.294 897.663C847.143 896.602 848.628 895.01 850.22 895.541L848.416 897.663V895.541C849.477 894.692 850.644 893.419 850.22 891.934L852.023 893.737V891.934H854.145V889.812C855.736 889.281 857.116 890.873 858.07 891.934V893.737H859.874C860.404 895.116 859.025 896.814 858.07 897.663H859.874C859.874 899.466 859.874 901.8 859.874 903.498H858.07C858.07 904.452 858.07 906.468 858.07 907.423H855.949C855.949 908.272 855.949 910.075 855.949 911.03C854.994 911.03 852.978 911.03 852.023 911.03C851.174 912.197 849.901 913.682 848.31 913.152C848.946 915.592 845.658 917.289 844.385 918.987C843.43 918.987 841.414 918.987 840.459 918.987C838.868 921.639 835.473 920.684 832.821 920.79C832.821 921.745 832.821 923.761 832.821 924.716H830.699V926.838L828.895 925.034C828.895 928.111 828.895 931.718 828.895 934.795C827.94 934.795 825.925 934.795 824.97 934.795C824.015 936.068 822.742 937.022 821.044 936.598C821.044 937.553 821.044 939.569 821.044 940.523H819.241C821.999 942.221 820.832 945.722 821.044 948.48C821.999 948.48 824.015 948.48 824.97 948.48C824.97 950.92 824.97 953.785 824.97 956.119H823.166V957.922H824.97C824.545 959.832 825.712 960.787 827.092 961.848V960.044H828.895V957.922H830.699C829.956 955.694 832.927 955.164 832.821 953.042C832.821 951.027 832.821 948.268 832.821 946.358C834.412 946.783 835.685 945.616 836.534 944.555C838.125 944.131 839.504 945.085 840.459 946.358H838.656C839.61 947.738 840.671 948.905 842.581 948.48C842.157 949.86 843.324 951.239 844.385 952.087V954.209C843.43 954.209 841.414 954.209 840.459 954.209L842.581 956.013C840.777 956.013 838.231 956.013 836.428 956.013V957.816C837.383 957.816 839.398 957.816 840.353 957.816V959.938H842.475C843.005 961.53 841.414 962.909 840.353 963.864C840.353 964.712 840.353 966.516 840.353 967.471C839.398 968.85 838.337 970.017 836.428 969.592V971.396H834.624V973.2C835.579 973.2 837.595 973.2 838.55 973.2V975.321H840.353L838.55 977.125H840.353C840.565 982.536 840.884 983.49 836.322 986.991C833.245 989.432 831.547 994.1 828.789 996.646C830.911 995.797 831.866 999.298 832.715 1000.57C831.866 1001.53 830.168 1002.8 828.789 1002.37C826.455 1004.5 824.121 1006.83 824.864 1010.33C827.622 1011.07 828.895 1007.79 830.699 1006.41C833.351 1007.15 833.563 1004.28 835.897 1004.28C838.762 1005.03 841.626 1002.16 844.385 1002.48V1000.68C844.809 1001 850.326 1004.28 850.432 1004.6C851.387 1005.98 852.341 1006.72 854.145 1006.41C854.994 1009.38 858.495 1012.98 858.07 1016.17H859.874C863.587 1010.76 857.964 1009.69 861.677 1004.28C860.617 1001.42 866.558 999.51 865.603 996.646C863.057 995.16 863.905 991.766 863.799 989.325C864.011 987.31 866.239 984.976 865.603 982.854C866.133 980.52 863.269 977.549 863.799 975.215C864.648 974.473 866.027 972.669 865.603 971.29C866.982 971.396 869.422 970.972 870.377 972.139C870.907 973.2 872.499 973.306 873.56 973.2C874.514 973.2 876.318 973.2 877.273 973.2L879.395 971.396C879.395 970.441 879.395 968.425 879.395 967.471C880.349 966.622 882.153 964.818 883.108 963.864C883.108 962.06 883.108 959.62 883.108 957.816C882.365 956.543 880.88 953.467 881.304 951.981C881.941 950.708 883.638 947.632 883.108 946.146C886.397 944.767 892.02 940.948 892.762 937.235C893.08 935.961 890.004 912.728 891.701 912.303C897.218 903.073 923.316 909.439 923.953 902.755C923.953 901.164 923.529 899.148 925.332 898.299C926.817 896.92 929.576 898.405 930.531 896.177C931.167 893.207 936.366 891.085 935.835 887.902C936.26 887.372 941.458 876.444 941.882 876.02C942.731 875.277 943.898 873.58 943.474 872.307C947.93 871.14 950.582 875.808 953.552 878.248C958.645 881.218 966.496 886.947 972.755 885.993C975.301 885.886 979.333 886.523 980.5 883.552C983.258 876.02 994.716 873.474 988.35 864.244C992.064 861.485 986.653 857.03 989.73 853.741C995.777 846.208 1005.43 858.197 1009.78 852.68L1011.58 854.802C1016.89 853.635 1015.93 848.118 1017.95 844.511C1021.34 840.161 1025.38 838.039 1030.79 837.191C1035.45 835.705 1038.11 842.283 1041.5 836.766C1043.41 835.599 1047.44 832.629 1049.03 831.143C1053.07 830.295 1051.79 826.369 1050.73 823.717H1048.61C1048.08 823.293 1035.45 778.204 1033.76 780.326C1020.6 776.506 983.576 766.216 972.861 759.426C973.498 753.378 971.588 756.349 970.739 752.424C970.845 748.392 970.739 740.223 970.739 736.298C971.8 734.282 973.816 730.463 974.665 728.341C977.635 723.991 977.529 700.969 978.59 695.453C977.635 694.604 983.895 679.539 984.213 678.372C986.122 675.614 990.366 672.643 992.276 669.779C993.655 667.232 998.853 657.366 999.914 654.82C1000.34 653.865 1005.54 631.798 1005.96 630.843C1005.96 624.796 1026.44 626.918 1029.73 625.645C1036.2 625.326 1026.97 607.291 1027.39 604.532C1027.39 603.472 1012.54 585.86 1012.01 584.906C1004.58 583.102 1002.35 580.768 1001.93 578.752C1001.51 575.888 1004.58 574.403 1007.98 568.78C1011.27 563.369 1012.22 558.383 1013.07 553.715C1014.98 543.848 1012.33 543.53 1014.24 538.013C1016.78 530.799 1021.45 531.33 1026.54 521.993C1028.77 517.856 1031.74 512.445 1029.94 507.247C1028.45 503.215 1025.59 503.64 1019.44 498.229C1011.8 491.439 1014.13 488.787 1004.05 477.541C1000.98 474.04 999.596 472.979 999.596 470.857C999.596 466.402 1005.64 465.553 1011.37 458.02C1015.3 453.034 1013.71 451.867 1018.16 445.183C1020.07 442.213 1023.47 437.227 1029.41 432.877C1031.85 431.073 1039.59 425.557 1050.2 425.026C1056.89 424.708 1058.37 426.617 1061.66 424.92C1067.6 421.843 1064.63 414.735 1070.46 408.794C1076.94 402.216 1084.79 406.46 1091.05 399.034C1092.53 397.23 1092.43 396.487 1095.18 389.804C1101.23 374.951 1102.72 375.8 1104.2 370.177C1107.17 358.931 1100.81 356.597 1101.97 339.41C1102.61 329.438 1104.73 329.968 1104.2 323.178C1103.46 314.161 1099.64 311.615 1094.12 297.398C1092.11 292.2 1089.99 286.577 1088.5 278.938C1086.17 266.526 1088.39 262.919 1085.11 250.93C1083.3 244.353 1082.24 240.639 1078.85 237.138C1074.18 232.364 1070.25 233.001 1067.07 228.015C1064.1 223.453 1066.65 221.543 1063.68 216.238C1061.24 211.677 1055.93 206.69 1050.2 206.69C1046.28 206.69 1045.64 209.024 1041.82 208.388C1037.36 207.645 1036.2 204.144 1032.8 204.462C1029.94 204.781 1029.51 207.327 1027.18 208.388C1020.92 211.358 1014.34 197.354 1002.14 194.702C988.457 191.625 981.454 205.841 966.708 201.386C961.191 199.794 959.494 196.93 955.144 197.779C948.142 199.052 947.93 207.327 939.973 210.616C934.138 213.056 925.332 212.207 921.937 207.009C918.542 201.704 921.407 193.004 926.181 189.079C930.212 185.79 935.835 185.578 936.047 182.926C936.154 181.122 933.607 179.955 934.032 179C934.774 177.197 943.156 179 943.262 178.682C943.368 178.364 932.334 177.727 930.637 172.847C930.106 171.468 931.273 168.922 933.713 163.935C936.896 157.252 938.275 155.873 938.169 153.008C938.169 149.931 936.578 149.295 935.093 145.688C930.743 134.973 937.321 121.923 938.169 120.226C939.124 118.21 940.397 116.194 941.776 112.375C943.049 108.874 943.262 107.071 944.004 103.994C946.657 93.0665 949.733 92.6421 949.627 86.701C949.627 81.2904 946.975 77.1528 946.02 75.7736C942.095 69.7264 938.7 71.2117 934.774 65.695C930.531 59.6478 932.228 54.5554 927.984 52.5396C926.287 51.6909 923.741 51.3726 921.831 52.5396C918.861 54.4493 919.709 58.799 917.057 59.8599C915.36 60.4965 913.556 59.3295 912.283 58.6929C906.13 55.5102 902.416 58.4807 881.941 57.8442C878.652 57.7381 876.636 57.632 874.09 56.9955C870.165 56.0406 865.709 54.9797 862.844 51.3726C861.041 48.9325 861.253 47.3412 858.389 44.3706C857.116 42.9914 855.736 41.7183 854.145 41.8244C852.235 42.0366 852.023 44.1584 849.689 45.7498C846.188 48.0838 841.308 46.5985 840.459 46.2803C839.717 46.0681 834.624 44.4767 833.139 40.4452C833.139 40.4452 822.424 39.3843 820.62 39.3843C818.817 39.3843 814.679 45.5376 809.905 42.6731C805.237 39.8087 798.765 33.7615 792.188 32.5945C785.61 31.4275 771.394 34.7163 752.191 33.0188C732.989 31.4275 741.476 24.8498 738.612 15.6199C735.747 6.38993 722.91 5.85948 707.209 10.3153C691.507 14.8772 687.369 31.7457 670.077 37.899C652.678 44.0523 640.477 25.8046 642.387 19.0148C644.296 12.225 637.825 15.0894 631.672 8.29958C625.518 1.61583 620.532 1.61583 613.53 3.41938C606.528 5.22293 604.406 25.5924 593.267 32.7006C582.127 39.9148 565.789 46.2803 563.985 47.2351C562.182 48.1899 552.315 47.0229 550.406 53.6005C548.496 60.1782 549.981 60.8148 550.406 66.7559C550.83 72.697 536.614 83.4122 534.704 85.6401C532.794 87.868 494.814 90.6264 483.886 92.6421C472.959 94.6579 471.049 75.7736 468.609 73.3335C466.063 70.8934 454.499 57.3137 452.483 56.9955C450.468 56.5711 410.577 67.8168 402.514 70.4691C398.589 71.7422 392.436 76.9406 386.389 81.9269L379.705 68.4533L361.563 51.797C361.563 51.797 355.198 60.4965 357.85 62.6183C360.502 64.7401 371.111 78.7442 371.111 78.7442L364.958 96.2492L336.738 111.314L313.716 112.269C313.716 112.269 304.592 122.348 301.94 123.303C299.288 124.151 290.058 117.998 287.83 117.998C285.602 117.998 276.266 104.737 276.266 104.737C276.266 104.737 258.549 99.6442 260.458 98.5832C262.262 97.6284 276.16 98.265 276.266 95.931C276.372 93.597 277.963 86.3827 275.099 85.2157C272.234 84.0487 260.458 70.6812 260.458 70.6812L253.987 83.3061L247.303 85.4279L241.574 74.5005L232.238 77.8954L237.967 96.3553L241.68 103.888L244.12 130.517C244.12 130.517 246.242 140.914 243.271 141.02C240.301 141.02 222.265 137.943 222.265 137.943C222.265 137.943 199.456 139.322 201.365 134.018C203.275 128.713 216.006 114.497 216.643 109.192C217.279 103.888 218.658 84.7914 217.81 77.0467C216.961 69.3021 216.112 65.1645 213.46 58.1625C210.808 51.1604 213.46 43.2036 209.11 43.9462C204.654 44.795 205.927 43.628 197.97 42.7792C190.014 41.9305 186.725 42.461 184.815 38.0051C183.012 33.5493 173.888 18.06 173.888 18.06C173.888 18.06 167.098 16.7869 166.461 18.06C165.825 19.4392 163.066 23.4706 161.157 29.4117C159.247 35.3528 158.611 40.9757 153.837 47.2351C149.168 53.4945 151.184 57.3137 149.062 63.7853C146.834 70.363 150.548 77.5772 143.864 75.031C137.18 72.4848 134.952 70.363 134.952 70.363L139.09 76.0919C139.09 76.0919 108.429 100.493 107.581 101.766C106.838 102.933 146.092 126.167 138.135 124.576C130.178 122.984 46.8965 116.3 46.8965 116.3L49.761 97.5223L44.8808 93.3848C44.8808 93.3848 0.428542 100.281 1.70164 100.705C2.97473 101.129 6.47574 127.334 6.47574 127.334C6.47574 127.334 4.35392 144.096 6.26356 143.248C8.1732 142.399 44.7747 149.613 48.2757 148.87C51.7767 148.128 63.1285 144.733 64.7198 148.87C66.3112 153.008 70.0244 160.222 70.0244 160.222L78.5117 164.466C78.5117 164.466 74.5863 169.664 74.6924 171.256C74.7985 172.847 73.3132 182.395 74.6924 183.881C76.0716 185.366 79.1483 193.641 79.1483 193.641L56.763 186.321L30.9828 194.596C30.9828 194.596 35.5447 207.221 35.1204 208.494C34.696 209.767 30.9828 220.482 30.9828 220.482L29.3915 233.743C29.3915 233.743 32.0437 244.459 32.4681 247.005C32.8925 249.551 29.8158 254.643 32.4681 254.75C35.1204 254.856 47.8513 254.75 47.8513 254.75C47.8513 254.75 55.3838 243.822 58.4605 241.382C61.5371 238.942 76.496 230.985 81.0579 230.773C85.7259 230.561 91.5609 229.394 93.0462 226.635C94.5315 223.877 93.6828 219.952 95.168 215.284C96.6533 210.616 100.579 207.433 99.73 204.356C98.8812 201.28 103.868 189.503 105.565 186.745C107.262 183.987 115.856 165.209 121.266 167.755C126.677 170.301 132.724 186.957 137.392 187.488C141.848 188.018 154.579 200.113 160.096 204.25L166.461 205.311C167.204 205.311 167.947 205.099 168.795 204.993C169.856 204.781 170.387 204.675 170.917 204.993C171.872 205.523 171.766 206.69 172.721 207.115C173.569 207.433 174.418 206.69 174.843 207.115M799.826 784.994V786.797M799.826 784.994H798.023V783.19H799.826C799.932 780.856 800.144 778.84 798.023 777.355C798.023 776.4 798.023 774.385 798.023 773.43H799.826C799.826 770.671 799.296 769.292 801.948 767.595C801.524 766.003 803.009 763.139 803.752 761.76C803.752 760.805 803.752 758.789 803.752 757.834H805.555V755.712M805.555 755.712H803.752M805.555 755.712C805.449 751.257 808.526 755.076 807.677 746.27H809.48M809.48 746.27V744.149H811.602V742.345C811.602 743.3 811.602 745.316 811.602 746.27H809.48ZM809.48 746.27C809.48 747.225 809.48 749.029 809.48 749.877C810.541 750.832 812.133 752.212 811.602 753.803C810.223 754.864 809.056 755.819 809.48 757.728C807.253 759.213 807.571 761.123 807.677 763.563C808.207 765.155 806.616 766.64 805.555 767.489C805.555 768.443 805.555 770.247 805.555 771.096H807.677V773.218C808.738 773.005 810.223 773.536 810.86 774.385C814.891 776.825 822.105 772.581 825.076 777.143L829.001 775.021C830.699 775.021 833.139 775.021 834.836 775.021V773.218H836.64V771.096H838.762V769.292C840.459 769.292 842.899 769.292 844.597 769.292C846.082 767.064 847.992 767.383 850.432 767.489V765.367C851.387 765.367 853.402 765.367 854.357 765.367C855.312 764.094 856.585 763.139 858.282 763.563V761.76H860.086V759.638H861.89C860.616 758.683 859.662 757.304 860.086 755.712C859.131 754.439 857.858 753.485 856.161 753.909C856.161 752.954 856.161 750.938 856.161 749.984V752.105C857.964 749.771 859.131 749.877 861.996 749.984C862.844 749.029 864.542 747.65 865.921 748.18V746.376C866.876 745.528 868.255 743.83 867.725 742.451H865.921C865.921 741.496 865.921 739.48 865.921 738.526H867.725V736.722C869.634 737.04 870.589 736.192 871.544 734.706C873.772 733.433 874.09 731.099 873.772 728.765H875.575C873.347 727.28 873.666 725.37 873.772 722.93H871.65C871.65 721.975 871.65 719.96 871.65 719.005H869.846C874.727 714.549 873.878 715.822 873.772 709.245M873.772 709.245H875.575M873.772 709.245C873.772 707.229 873.878 705.107 873.772 702.985C873.666 701.606 873.984 701.924 872.817 701.606C872.074 701.394 871.013 701.606 870.271 701.606C870.165 701.606 870.059 701.606 869.953 701.5C869.846 701.394 869.846 701.288 869.846 701.182C869.846 700.015 869.846 698.848 869.846 697.681C869.104 697.681 868.467 697.681 867.725 697.681C867.725 696.514 867.725 695.347 867.725 694.286C867.725 694.18 867.725 693.967 867.619 693.861C867.406 693.543 866.876 693.861 866.452 693.755C866.027 693.755 865.815 693.331 865.815 693.013C865.815 692.694 865.921 692.27 866.027 691.952C866.558 691.952 867.088 691.952 867.512 691.846C866.027 689.405 863.057 686.965 860.935 685.056C859.343 683.677 860.935 681.024 859.45 679.539C858.495 678.902 858.07 677.417 858.282 676.356C855.312 674.659 855.1 670.415 852.129 668.718C851.493 665.004 854.888 666.384 854.251 662.67H856.055C856.055 660.973 856.055 658.639 856.055 656.835C857.009 656.835 859.025 656.835 859.98 656.835V655.032H861.784C861.253 653.653 863.269 650.364 863.905 649.197V651H861.784C861.784 652.698 861.784 655.032 861.784 656.835C864.754 658.745 863.799 661.716 863.905 664.792H865.709V662.67C867.406 662.67 869.846 662.67 871.544 662.67H869.74C870.695 664.262 872.393 665.323 873.666 666.596C874.833 667.657 875.681 669.142 875.575 670.627C875.575 669.991 875.575 669.46 875.575 668.824C876.955 669.672 876.742 670.733 877.485 671.794C878.122 672.643 878.97 672.643 880.349 672.537C880.88 672.537 881.623 672.219 881.516 671.688C881.516 671.37 881.304 671.158 881.41 670.84C881.623 670.415 882.153 670.627 882.577 670.627C883.214 670.627 883.638 669.885 883.32 669.354C883.002 668.718 882.153 668.718 881.516 668.824C882.047 668.187 882.471 667.657 883.002 667.02C883.108 666.914 883.214 666.808 883.214 666.702C883.214 666.596 883.108 666.49 883.002 666.384C882.683 666.065 882.259 665.641 881.941 665.323C883.002 666.596 884.169 667.657 885.336 668.718C886.291 666.278 883.214 664.686 884.593 662.034C885.124 661.079 888.306 657.048 889.367 657.048H887.245L889.367 655.244C890.216 656.305 891.595 657.472 893.08 657.048C890.428 655.032 888.943 652.38 891.277 649.409V651.213L889.473 649.409C891.171 649.939 892.444 648.242 893.293 647.075C894.141 645.802 895.839 643.044 895.308 641.452L897.112 643.574C896.157 642.725 894.778 641.028 895.308 639.649L893.187 637.845C890.534 638.057 886.078 636.784 884.063 639.012C883.851 639.224 883.002 641.452 883.426 641.452C882.471 641.452 880.668 641.452 879.713 641.452V643.574H877.591V645.378H879.713C880.243 646.969 878.652 648.454 877.591 649.303C876.424 648.136 873.984 644.423 871.756 645.378M871.756 645.378C870.801 646.651 869.528 647.605 867.831 647.181C868.679 646.226 870.377 644.847 871.756 645.378ZM871.756 645.378V643.574C873.666 643.998 874.621 642.937 875.681 641.558C876.742 640.71 878.015 639.33 877.591 637.845H879.713C879.713 636.042 880.137 634.026 878.652 632.647C877.909 631.904 876.848 631.586 875.788 631.798C875.788 632.541 875.788 633.283 875.788 633.92C875.151 633.92 874.514 633.92 873.984 633.92C873.984 633.177 873.984 632.541 873.984 631.798C872.817 631.904 871.756 631.904 870.589 631.692C869.422 631.48 868.467 630.843 867.831 629.994C868.573 629.994 869.21 629.994 869.953 629.994C869.953 629.358 869.953 628.827 869.953 628.191C870.589 628.191 871.226 628.191 871.756 628.191C871.756 628.827 871.756 629.358 871.756 629.994C873.029 629.994 874.408 629.994 875.681 629.994C875.681 629.358 875.681 628.827 875.681 628.191C876.212 628.191 879.289 628.509 879.713 628.191C880.668 627.342 882.047 625.645 881.516 624.265H883.32C883.32 621.931 883.744 619.916 881.516 618.43H883.32V616.309C885.018 616.733 886.291 615.672 887.245 614.505C888.306 614.611 889.898 614.505 890.428 613.444C891.489 612.489 891.171 610.474 891.277 609.307C891.277 607.503 893.611 605.487 892.55 603.578C892.02 602.517 890.959 600.183 891.277 598.91L889.473 597.106V594.984C888.625 594.029 886.927 592.756 885.548 593.181V590.528L883.426 592.332C882.471 592.332 880.668 592.332 879.713 592.332V590.528H881.516C882.259 587.876 878.97 586.179 877.591 584.481C876 581.829 872.605 582.784 869.953 582.678V580.874H871.756C871.013 577.373 874.514 578.328 873.878 575.039C874.514 571.326 871.12 572.705 871.756 568.992C872.18 565.173 868.786 565.173 865.921 565.385C864.011 561.99 859.343 563.581 856.161 563.263M856.161 563.263V565.385M856.161 563.263C854.781 563.687 851.599 561.99 850.326 561.459V559.656H848.522V557.534H846.4V555.73C847.355 555.73 849.371 555.73 850.326 555.73C851.387 554.351 852.341 553.184 854.251 553.609V551.805C859.343 552.548 860.086 550.108 861.89 545.97C862.844 545.97 864.86 545.97 865.815 545.97V543.848C866.77 545.121 868.043 546.076 869.74 545.652V547.455C874.833 547.455 880.243 547.455 885.336 547.455C886.397 548.835 887.352 550.002 889.261 549.577C891.383 549.577 894.778 549.577 896.9 549.577V547.455C897.855 547.455 899.87 547.455 900.825 547.455C900.189 542.151 907.297 544.167 910.586 543.848C910.161 545.97 912.071 547.986 914.299 547.455C913.344 555.2 918.648 552.972 924.059 553.29C925.863 552.123 927.454 549.047 929.894 549.683V547.561H932.016V545.758H933.819V541.726H935.941C935.517 540.347 936.896 538.65 937.745 537.801H935.941C935.517 535.679 937.427 533.664 939.654 534.194V532.072C940.503 531.542 945.383 530.799 945.914 529.738C946.444 529.102 949.203 526.555 949.839 526.025C952.492 524.434 958.963 521.887 961.403 520.084C965.116 516.477 972.012 508.838 974.24 504.17C975.195 502.791 973.71 500.775 973.285 499.608C972.967 498.972 972.967 495.895 973.073 495.152C972.967 493.137 973.073 490.378 974.346 488.681C975.301 487.302 973.816 485.392 973.391 484.119C972.967 483.482 973.073 477.329 973.179 476.48C973.498 475.207 969.891 471.282 969.466 470.221C968.936 469.478 967.663 464.704 967.344 463.855C965.753 458.339 957.796 450.488 953.659 446.669C953.871 444.653 952.81 441.258 950.688 440.515C948.778 440.303 944.322 437.863 942.837 439.985C940.928 442.107 936.047 444.547 933.607 445.926C932.122 446.881 930.318 445.502 928.939 444.865C927.984 444.229 925.332 444.759 924.271 444.547C921.407 444.335 921.831 448.684 918.967 448.472C916.527 449.109 914.511 446.138 913.026 444.759C912.92 444.547 907.403 441.152 906.978 440.834C903.053 440.834 903.902 443.804 899.022 440.834V442.637H897.218V444.441H895.308V446.563C893.505 444.229 892.338 444.335 889.473 444.441V446.563C888.519 446.563 886.503 446.563 885.548 446.563C883.957 448.048 880.986 449.851 881.623 452.398C880.668 452.398 878.652 452.398 877.697 452.398V450.488C876.53 450.7 875.363 450.382 874.833 449.321C873.878 447.942 871.438 448.472 870.059 448.366C870.483 450.276 869.316 451.337 867.937 452.292C867.937 451.337 867.937 449.321 867.937 448.366C866.239 448.366 863.905 448.366 862.102 448.366V450.488C861.147 450.488 859.343 450.488 858.389 450.488L860.192 448.366C860.192 447.411 860.192 445.396 860.192 444.441C862.844 440.621 865.815 444.759 868.043 440.197C869.104 437.863 870.483 433.619 869.953 430.967C870.377 426.724 869.422 422.055 865.921 419.297C864.966 418.448 863.693 416.751 864.117 415.372C862.738 414.523 857.964 410.492 856.161 411.446V409.643C855.206 410.916 853.827 411.871 852.235 411.446C850.75 413.674 848.84 413.356 846.4 413.25C843.96 413.25 841.202 413.25 838.762 413.25V415.372C837.807 415.372 835.791 415.372 834.836 415.372C833.139 407.415 843.005 409.537 842.793 403.808C842.263 400.307 845.87 396.7 846.506 393.411C846.506 391.289 846.506 388.212 846.506 386.091C847.567 384.181 849.583 380.362 850.432 378.452C850.22 375.269 850.432 371.45 852.235 368.692C854.039 368.692 856.585 368.692 858.389 368.692C861.147 365.084 866.027 361.902 867.619 357.446C870.695 354.688 872.393 349.595 873.666 345.67C874.727 343.76 879.925 339.304 881.41 337.607C881.835 337.183 891.277 325.619 891.701 325.725C896.794 323.497 903.053 319.571 904.963 314.055C906.024 312.145 907.721 308.326 908.676 306.31C909.312 305.143 911.328 301.96 910.798 300.581C911.752 299.732 913.026 298.035 912.601 296.656C910.373 295.17 910.692 293.261 910.798 290.821H912.601C913.026 288.274 912.071 284.986 910.692 282.758L908.57 279.257C908.57 278.302 908.57 276.286 908.57 275.331C907.615 274.483 906.236 272.785 906.766 271.406C905.493 269.708 902.204 268.011 902.841 265.571C907.827 266.314 906.766 260.903 906.766 257.614C903.796 254.856 900.931 251.249 897.006 249.975V248.172C896.051 248.172 894.035 248.172 893.08 248.172V246.05C894.035 246.05 896.051 246.05 897.006 246.05V244.247C895.521 244.777 893.823 243.08 893.08 242.125C892.126 242.125 890.322 242.125 889.367 242.125L887.245 240.321C887.245 239.366 887.245 237.351 887.245 236.396C886.185 235.229 884.381 233.531 883.108 232.577C881.835 231.728 878.864 230.773 879.607 228.757C876.848 228.757 873.241 228.757 870.483 228.757C862.95 226.423 852.766 218.466 844.491 218.997C842.263 218.997 838.762 218.997 836.534 218.997C834.624 219.209 831.441 218.36 829.956 219.846C829.426 220.8 828.153 221.013 827.092 220.906V223.028H824.97V220.906C822.105 221.119 818.71 221.013 819.135 217.299H817.331C817.543 216.769 818.392 214.223 817.331 213.374C816.483 212.631 814.997 213.268 812.239 214.329C810.648 214.965 809.162 215.496 807.571 216.557C801.524 220.376 800.463 226.317 796.75 227.484C795.476 227.908 791.339 228.439 777.971 212.101C767.362 199.052 768.635 197.036 761.527 189.716C750.918 178.894 739.885 174.863 737.551 174.014C728.427 170.831 721.425 171.15 715.059 171.044C689.81 170.619 685.778 163.617 663.393 161.389C630.611 157.994 631.884 171.998 602.709 168.073C578.626 164.89 560.166 152.902 549.663 162.132C547.753 163.829 546.586 165.739 540.115 171.998C531.097 180.698 527.808 182.501 524.413 182.395C520.7 182.395 521.231 180.38 516.032 179.213C508.181 177.515 505.105 181.547 495.769 180.167C491.631 179.531 492.374 178.788 488.661 178.258C481.977 177.409 477.945 179.743 469.882 182.183C469.458 182.289 460.546 184.942 451.529 185.896C448.664 186.215 442.829 185.896 431.053 185.154C419.913 184.517 405.273 183.562 400.499 180.061C399.968 179.743 398.801 178.682 396.785 178.258C395.406 177.939 394.982 178.152 390.95 178.258C389.677 178.258 388.298 178.258 387.025 178.258C385.752 178.258 384.373 178.364 383.1 178.258C379.387 178.152 378.538 177.515 377.265 178.258C376.204 178.894 376.522 179.637 375.461 180.061C374.719 180.38 374.506 180.061 371.536 180.061C370.369 180.061 370.369 180.061 369.414 180.061C368.035 180.061 367.929 179.955 367.61 180.061C366.549 180.486 366.868 181.759 365.807 182.183C365.489 182.289 365.382 182.183 363.685 182.183C362.624 182.183 362.094 182.183 361.881 182.183C360.078 182.395 359.76 183.668 357.956 183.987C357.001 184.199 357.107 183.881 356.153 183.987C354.561 184.199 354.243 185.048 352.227 186.109C350.105 187.169 349.681 186.851 348.302 187.912C347.665 188.443 347.984 188.336 346.498 189.716C345.331 190.883 344.801 191.095 344.695 191.837C344.589 192.156 344.589 192.686 344.695 193.641C344.801 194.914 344.907 195.232 344.695 195.445C344.27 195.869 343.422 195.126 342.573 195.445C341.512 195.869 341.724 197.142 340.769 197.566C339.814 197.885 339.072 197.142 338.647 197.566C338.329 197.885 338.86 198.521 338.647 199.37C338.329 200.431 337.268 200.431 336.844 201.492C336.632 202.128 336.844 202.34 336.844 203.295C336.844 205.842 335.146 206.372 335.04 209.13C335.04 209.661 335.04 209.873 335.04 210.934C335.04 212.525 334.934 212.631 335.04 213.056C335.465 214.223 336.95 214.647 336.844 214.859C336.738 215.071 335.571 214.435 335.04 214.859C334.616 215.284 334.722 216.238 335.04 216.981C335.677 218.148 336.95 218.572 336.844 218.785C336.738 218.997 335.571 218.36 335.04 218.785C334.616 219.209 334.616 220.27 335.04 220.588C335.571 221.013 336.632 220.27 336.844 220.588C337.056 220.906 336.313 222.392 335.04 222.71C334.192 222.922 333.767 222.498 332.919 222.71C332.282 222.922 331.858 223.453 331.115 224.514C330.266 225.787 329.418 226.848 329.311 228.439C329.205 229.182 329.311 230.03 329.311 230.242C329.418 231.622 329.63 232.046 329.311 232.364C328.887 232.789 328.144 232.046 327.19 232.364C326.447 232.577 326.553 233.107 325.386 234.168C324.113 235.335 323.582 235.229 323.264 235.971C323.158 236.396 323.264 236.502 323.264 238.093C323.264 238.093 323.264 238.73 323.264 239.897C323.264 241.17 323.264 242.549 323.264 243.822C323.264 245.626 323.264 245.626 323.264 245.626C323.37 248.384 323.689 248.808 323.264 249.551C322.734 250.612 321.885 250.294 321.461 251.355C320.718 252.946 322.097 254.75 321.461 255.28C320.93 255.598 320.082 254.856 319.657 255.28C319.445 255.492 319.551 255.917 319.657 257.084C319.763 258.251 319.763 258.887 319.657 259.205C319.233 260.266 317.96 259.948 317.535 261.009C317.323 261.433 317.535 261.433 317.535 263.131C317.535 264.616 317.429 264.616 317.535 264.934C317.96 265.995 319.233 265.783 319.657 266.738C319.975 267.481 319.339 267.905 319.657 268.86C319.869 269.708 320.612 270.451 321.461 270.663C322.416 270.875 322.946 270.345 323.264 270.663C323.689 271.088 322.84 272.042 323.264 272.467C323.582 272.891 324.325 272.361 325.386 272.467C327.19 272.679 327.402 274.376 329.311 274.589C329.524 274.589 330.054 274.589 331.115 274.589C332.706 274.589 332.706 274.483 332.919 274.589C334.086 274.907 333.979 276.074 335.04 276.392C335.359 276.498 335.889 276.498 336.844 276.392C338.117 276.286 338.435 276.18 338.647 276.392C338.966 276.604 338.754 277.029 338.647 278.514C338.541 279.575 338.541 279.999 338.647 280.318C338.966 281.166 339.602 281.166 340.769 282.121C341.512 282.758 342.255 283.394 342.573 284.243C342.785 284.879 342.573 284.88 342.573 287.85C342.573 289.441 342.679 289.335 342.573 289.972C342.467 291.139 342.255 291.563 342.573 291.775C343.103 292.2 344.27 291.351 344.695 291.775C345.119 292.2 344.376 293.049 344.695 293.897C345.119 294.852 346.392 294.534 348.408 295.701M348.408 295.701C349.893 296.55 350.53 297.61 350.53 297.504C350.636 297.398 349.787 296.019 348.408 295.701ZM348.408 295.701C347.559 295.489 347.241 296.019 346.604 295.701C345.649 295.276 345.756 294.322 344.801 293.897C344.483 293.791 344.483 293.897 342.679 293.897C341.724 293.897 341.3 293.897 340.875 293.897C339.39 293.791 338.966 293.579 338.754 293.897C338.329 294.322 339.178 295.383 338.754 295.701C338.329 296.125 337.268 295.276 336.95 295.701C336.526 296.125 337.374 297.08 336.95 297.504M336.95 297.504C336.526 298.035 335.146 297.61 335.146 297.504C335.146 297.398 336.526 296.974 336.95 297.504ZM336.95 297.504C337.268 297.823 337.056 298.247 336.95 299.626M336.95 299.626C336.95 300.157 336.844 301.43 336.95 301.43C337.056 301.43 337.48 300.157 336.95 299.626ZM336.95 299.626C336.632 299.308 335.677 299.308 335.146 299.626C333.661 300.475 334.298 302.703 333.025 303.233C332.812 303.339 332.919 303.233 331.221 303.233C329.63 303.233 329.63 303.339 329.418 303.233C328.251 302.915 328.357 301.748 327.296 301.43C327.084 301.324 327.19 301.43 325.492 301.43C324.75 301.43 324.113 301.43 323.37 301.43C322.734 301.43 322.097 301.43 321.567 301.43C320.93 301.43 320.294 301.43 319.763 301.43C319.021 301.43 318.384 301.43 317.641 301.43C315.838 301.43 315.838 301.43 315.838 301.43C314.565 301.324 314.246 301.218 314.034 301.43M314.034 301.43C313.504 301.854 313.928 303.233 314.034 303.233C314.14 303.233 314.353 301.536 314.034 301.43ZM314.034 301.43C313.716 301.324 313.292 302.915 311.912 303.233C311.064 303.445 310.852 303.021 310.109 303.233C309.26 303.445 309.26 304.082 307.987 305.355C306.82 306.522 306.396 306.416 306.184 307.159C306.077 307.477 306.184 307.477 306.184 309.28C306.184 309.917 306.184 310.447 306.184 311.084C306.184 312.888 306.184 312.888 306.184 312.888C306.29 314.373 306.502 314.797 306.184 315.009C305.759 315.434 304.804 314.585 304.38 315.009C304.062 315.328 304.592 315.964 304.38 316.813C304.062 317.98 302.47 318.617 302.258 318.617C301.303 318.935 300.455 318.829 298.545 318.617C297.272 318.51 296.635 318.298 296.423 318.617C295.999 319.147 296.848 320.314 296.423 320.738C296.105 321.057 295.468 320.526 294.62 320.738C293.559 321.057 293.559 322.224 292.498 322.542C291.649 322.754 291.013 322.224 290.694 322.542C290.376 322.754 290.588 323.178 290.694 324.664C290.694 325.619 290.694 325.512 290.694 326.467C290.8 327.74 290.906 328.059 290.694 328.271C290.27 328.695 289.315 327.846 288.891 328.271C288.466 328.695 289.315 329.968 288.891 330.393C288.572 330.817 287.83 330.074 286.769 330.393C285.92 330.605 285.177 331.347 284.965 332.196C284.753 333.151 285.284 333.681 284.965 334C284.541 334.424 283.586 333.575 283.162 334C282.737 334.424 283.586 335.697 283.162 336.122C282.737 336.546 281.995 335.803 281.04 336.122C280.085 336.44 280.191 337.501 279.236 337.925C278.282 338.349 277.539 337.501 277.115 337.925C276.372 338.562 277.963 341.002 277.115 341.851C276.69 342.275 275.629 342.275 275.311 341.851M275.311 341.851C274.781 341.32 275.205 340.047 275.311 340.047C275.417 340.047 275.841 341.426 275.311 341.851ZM275.311 341.851C274.781 342.275 273.826 341.426 273.507 341.851C273.083 342.169 273.932 343.124 273.507 343.654C273.083 344.185 271.704 344.185 271.386 343.654C270.749 342.487 275.948 338.774 275.311 337.819M275.311 337.819C274.993 337.395 273.507 337.713 273.507 337.819C273.507 337.925 274.887 338.349 275.311 337.819ZM275.311 337.819C275.629 337.395 275.099 336.864 275.311 336.016C275.417 335.697 275.523 335.379 277.115 333.894C277.645 333.363 278.282 332.939 279.236 332.09C280.616 330.923 280.828 330.711 281.04 330.287C281.252 329.756 281.146 329.544 281.04 328.165C280.828 326.043 280.828 324.982 281.04 324.558C281.676 323.391 282.843 323.603 283.162 322.436C283.268 322.118 283.268 321.587 283.162 320.632C283.056 319.147 282.843 318.829 283.162 318.51C283.48 318.192 284.01 318.51 284.965 318.51C286.557 318.617 288.572 317.874 288.891 316.707C289.103 315.858 288.466 315.222 288.891 314.903C289.315 314.479 290.27 315.328 290.694 314.903C291.119 314.479 290.27 313.206 290.694 312.782C291.119 312.357 292.073 313.206 292.498 312.782C292.71 312.569 292.604 312.145 292.498 310.978C292.392 310.023 292.392 309.493 292.498 309.174C292.71 308.326 293.347 308.326 294.62 307.053C295.681 305.992 296.211 305.143 296.423 305.249C296.635 305.355 295.999 306.522 296.423 307.053C296.848 307.477 297.908 307.371 298.545 307.053C299.075 306.84 299.288 306.522 300.349 305.249C301.409 304.082 301.834 303.445 302.152 303.127C303.001 302.278 303.107 302.385 304.274 301.324C305.123 300.581 305.759 299.944 306.077 299.52C306.82 298.777 307.351 298.141 307.881 297.398C309.154 295.701 308.836 295.276 310.003 293.791C311.064 292.412 311.488 292.624 311.806 291.669C312.231 290.714 311.912 290.184 311.806 287.744C311.7 286.577 311.806 285.304 311.806 284.137C311.806 282.864 311.806 281.485 311.806 280.211C311.806 278.408 311.806 278.408 311.806 278.408C311.806 276.817 312.019 276.71 311.806 276.286C311.382 275.225 310.427 275.437 310.003 274.483C309.791 274.058 310.003 273.952 310.003 272.361C310.003 272.361 310.003 271.512 310.003 270.557C309.897 267.481 305.865 265.995 306.077 262.919C306.077 261.964 306.502 261.115 306.077 260.797C305.547 260.479 304.698 261.221 304.274 260.797C304.062 260.585 304.168 260.266 304.274 258.993C304.486 257.19 304.486 256.977 304.274 256.871C304.062 256.765 303.85 256.659 302.152 256.871C300.773 256.977 300.455 257.084 300.349 256.871C299.924 256.447 300.773 255.492 300.349 255.068M300.349 255.068C299.924 254.537 298.545 254.962 298.545 255.068C298.545 255.174 300.242 255.386 300.349 255.068ZM300.349 255.068C300.455 254.75 298.969 254.431 298.545 253.264C298.439 252.84 298.439 252.309 298.545 251.142C298.651 249.869 298.757 249.551 298.545 249.339C298.015 248.915 296.848 249.763 296.423 249.339C296.105 249.021 296.635 248.49 296.423 247.535C296.211 246.581 295.468 245.732 294.62 245.414C294.195 245.307 293.665 245.307 292.498 245.414C291.331 245.52 290.906 245.626 290.694 245.414C290.27 244.989 291.119 244.14 290.694 243.61C290.376 243.186 289.315 243.08 288.891 243.61C288.36 244.14 288.785 244.989 288.891 245.414C289.209 246.156 289.527 246.262 290.694 247.535C291.967 248.808 291.967 249.233 292.498 249.339C293.453 249.657 294.089 248.915 294.62 249.339C295.044 249.763 295.044 250.718 294.62 251.142C294.195 251.461 293.877 251.142 292.498 251.142C291.331 251.142 290.906 251.461 290.694 251.142C290.27 250.718 291.119 249.763 290.694 249.339C290.482 249.021 289.952 249.233 288.891 249.339C287.618 249.445 287.087 249.339 286.769 249.339M286.769 249.339C284.329 249.551 282.313 258.781 283.056 259.099C283.48 259.205 284.541 255.917 286.769 249.339ZM286.769 249.339C286.981 248.808 287.193 247.96 286.769 247.535C286.344 247.111 285.39 247.111 284.965 247.535M284.965 247.535C284.435 248.066 284.859 249.339 284.965 249.339C285.071 249.339 285.496 247.96 284.965 247.535ZM284.965 247.535C284.435 247.111 283.48 247.96 283.162 247.535C282.737 247.111 283.586 245.838 283.162 245.414C282.737 244.989 281.57 245.838 281.04 245.414C280.616 245.095 280.722 244.14 281.04 243.61C281.57 242.337 282.843 242.549 283.162 241.488C283.374 240.639 282.843 240.003 283.162 239.685M283.162 239.685C283.586 239.26 284.541 240.109 284.965 239.685C285.284 239.366 284.753 238.73 284.965 237.881C285.284 236.82 286.344 236.82 286.769 235.759C286.981 235.229 286.875 234.804 286.769 233.956C286.663 233.637 286.344 231.834 284.965 230.03C284.329 229.182 283.692 228.651 283.162 228.227C281.889 227.166 281.252 226.954 281.04 226.105C280.934 225.787 280.934 225.256 281.04 224.301C281.146 223.134 281.252 222.71 281.04 222.498M283.162 239.685C283.48 239.366 282.95 238.73 283.162 237.881C283.48 236.82 284.541 236.926 284.965 235.759C285.177 235.335 284.859 235.335 284.965 233.956C285.071 232.789 285.177 232.364 284.965 232.152C284.647 231.834 284.117 232.364 283.162 232.152C282.207 231.94 281.252 230.985 281.04 230.03C280.828 229.182 281.358 228.545 281.04 228.227C280.616 227.802 279.661 228.651 279.236 228.227C278.918 228.015 279.13 227.59 279.236 226.105C279.236 225.787 279.236 225.15 279.236 224.301C279.13 223.028 279.024 222.71 279.236 222.498M283.162 239.685C282.737 240.109 281.464 239.26 281.04 239.685C280.722 240.003 281.146 240.533 281.04 241.488C280.828 242.549 279.979 243.61 279.236 243.61C278.6 243.61 278.6 242.867 277.115 241.488C276.16 240.533 275.629 240.427 275.311 239.685C275.311 239.579 274.781 238.412 275.311 237.881C275.841 237.351 277.008 237.775 277.115 237.881C278.494 238.412 278.918 239.791 279.236 239.685C279.449 239.579 279.236 239.154 279.236 237.881C279.236 237.245 279.236 236.714 279.236 235.759C279.236 234.168 279.342 234.168 279.236 233.956C278.812 232.895 277.539 233.107 277.115 232.152C276.796 231.197 277.539 230.455 277.115 230.03C276.902 229.818 276.584 229.924 275.311 230.03C274.356 230.03 274.462 230.03 273.507 230.03C272.022 230.136 271.598 230.349 271.386 230.03C270.961 229.606 271.81 228.651 271.386 228.227C271.067 227.908 270.325 228.439 269.582 228.227C268.521 227.908 268.839 226.741 267.779 226.105C267.036 225.681 265.975 225.787 263.853 226.105C262.686 226.317 261.943 226.423 261.731 226.105C261.307 225.574 262.156 224.726 261.731 224.301C261.519 224.089 261.095 224.195 259.928 224.301C258.867 224.407 258.442 224.407 258.124 224.301C257.063 223.983 257.063 222.922 256.002 222.498C255.366 222.18 255.154 222.604 254.199 222.498C252.501 222.392 251.122 221.225 250.273 220.376C249 219.209 249.213 218.997 248.47 218.572C247.197 217.936 246.348 218.572 244.545 218.572C241.786 218.572 239.452 217.193 238.71 216.769C237.543 216.026 236.588 215.178 234.784 214.647C233.935 214.435 233.193 214.329 232.981 214.647C232.556 215.178 233.405 216.345 232.981 216.769C232.556 217.193 231.495 216.345 230.859 216.769C230.434 217.087 230.434 218.148 230.859 218.572M281.04 222.498C280.616 221.967 279.236 222.392 279.236 222.498M281.04 222.498C281.04 222.604 279.236 222.604 279.236 222.498M281.04 222.498C281.04 222.392 279.661 221.967 279.236 222.498M230.859 218.572C231.495 219.209 232.981 218.679 232.981 218.572C232.981 218.466 232.238 218.679 230.859 218.572ZM230.859 218.572C229.692 218.466 229.267 218.36 229.055 218.572C228.631 218.997 229.48 219.952 229.055 220.376C228.843 220.694 228.419 220.376 227.252 220.376C225.872 220.376 225.448 220.694 225.13 220.376C224.705 219.952 224.705 218.891 225.13 218.572M225.13 218.572C225.766 218.148 226.827 218.997 227.252 218.572C227.464 218.36 227.358 218.148 227.252 216.769C227.039 215.071 227.039 214.859 227.252 214.647M225.13 218.572C225.342 218.36 225.236 218.042 225.13 216.769C224.918 215.071 224.918 214.753 225.13 214.647C225.66 214.223 226.827 215.071 227.252 214.647M225.13 218.572C224.705 218.997 223.645 218.997 223.326 218.572C223.114 218.36 223.22 218.042 223.326 216.769C223.538 215.071 223.538 214.859 223.326 214.647M227.252 214.647C227.676 214.223 228.419 214.965 229.055 214.647C230.116 214.117 229.904 210.934 229.055 210.722C228.525 210.616 227.358 211.677 227.252 212.844C227.146 213.798 227.57 214.329 227.252 214.647ZM223.326 214.647C222.796 214.117 221.523 214.541 221.523 214.647M223.326 214.647C223.326 214.541 221.523 214.753 221.523 214.647M223.326 214.647C223.326 214.753 222.053 215.178 221.523 214.647M223.326 214.647C225.024 214.647 224.387 214.011 223.326 212.844M223.326 214.647C222.69 214.647 223.751 213.268 223.326 212.844M221.523 214.647C221.098 214.329 220.992 213.374 221.523 212.844M221.523 212.844C222.053 212.313 223.008 212.419 223.326 212.844M221.523 212.844C222.371 213.056 222.902 212.525 223.326 212.844M221.523 212.844C220.356 212.631 220.568 211.464 219.401 210.722C218.34 210.085 217.597 210.722 213.566 210.722C213.566 210.722 213.566 210.722 211.762 210.722C209.641 210.722 209.641 210.722 209.641 210.722C206.776 210.722 205.503 209.024 202.002 208.918C201.259 208.918 200.198 208.918 199.88 208.918C197.44 209.024 197.016 209.236 196.167 208.918C194.894 208.388 195.212 207.539 194.045 207.115C193.409 206.902 193.409 207.115 190.332 207.115C189.589 207.115 188.953 207.115 188.21 207.115C187.574 207.115 186.937 207.115 186.407 207.115C185.664 207.115 185.027 207.115 184.285 207.115C183.012 207.115 181.845 207.115 180.572 207.115C179.829 207.115 179.192 207.115 178.45 207.115C177.813 207.115 177.177 207.115 176.646 207.115C175.373 207.009 175.055 206.902 174.843 207.115M174.843 207.115C174.312 207.539 174.736 208.918 174.843 208.918C174.949 208.918 175.373 207.539 174.843 207.115Z" stroke="white" stroke-width="3" stroke-miterlimit="10"/>
</svg>
