<svg width="74" height="74" viewBox="0 0 74 74" fill="none" xmlns="http://www.w3.org/2000/svg">
<g filter="url(#filter0_d_134_94798)">
<circle cx="37" cy="37" r="22" fill="#FF5C00"/>
<circle cx="37" cy="37" r="20.5" stroke="white" stroke-width="3"/>
</g>
<path d="M30.33 43.472L36.27 37.202C37.018 36.41 37.6047 35.6547 38.03 34.936C38.4553 34.2173 38.668 33.484 38.668 32.736C38.668 31.988 38.4627 31.4013 38.052 30.976C37.656 30.5507 37.0767 30.338 36.314 30.338C35.522 30.338 34.884 30.58 34.4 31.064C33.9307 31.548 33.63 32.3473 33.498 33.462H30.814C30.9167 31.7313 31.452 30.3967 32.42 29.458C33.4027 28.5193 34.73 28.05 36.402 28.05C37.2087 28.05 37.9347 28.1673 38.58 28.402C39.2253 28.622 39.768 28.9373 40.208 29.348C40.6627 29.744 41.0073 30.228 41.242 30.8C41.4767 31.372 41.594 32.0027 41.594 32.692C41.594 33.7187 41.3153 34.6867 40.758 35.596C40.2007 36.5053 39.4527 37.4147 38.514 38.324L35.016 41.734H41.704V44H30.33V43.472Z" fill="white"/>
<defs>
<filter id="filter0_d_134_94798" x="0" y="0" width="74" height="74" filterUnits="userSpaceOnUse" color-interpolation-filters="sRGB">
<feFlood flood-opacity="0" result="BackgroundImageFix"/>
<feColorMatrix in="SourceAlpha" type="matrix" values="0 0 0 0 0 0 0 0 0 0 0 0 0 0 0 0 0 0 127 0" result="hardAlpha"/>
<feOffset/>
<feGaussianBlur stdDeviation="7.5"/>
<feComposite in2="hardAlpha" operator="out"/>
<feColorMatrix type="matrix" values="0 0 0 0 1 0 0 0 0 1 0 0 0 0 1 0 0 0 0.75 0"/>
<feBlend mode="normal" in2="BackgroundImageFix" result="effect1_dropShadow_134_94798"/>
<feBlend mode="normal" in="SourceGraphic" in2="effect1_dropShadow_134_94798" result="shape"/>
</filter>
</defs>
</svg>
