<svg width="74" height="74" viewBox="0 0 74 74" fill="none" xmlns="http://www.w3.org/2000/svg">
<g filter="url(#filter0_d_134_95193)">
<circle cx="37" cy="37" r="22" fill="#FF5C00"/>
<circle cx="37" cy="37" r="20.5" stroke="white" stroke-width="3"/>
</g>
<path d="M36.908 44.22C36.1307 44.22 35.3827 44.1247 34.664 43.934C33.96 43.7287 33.3367 43.4353 32.794 43.054C32.2513 42.658 31.8187 42.174 31.496 41.602C31.1733 41.0153 31.012 40.3333 31.012 39.556C31.012 38.544 31.2833 37.7007 31.826 37.026C32.3687 36.3513 33.08 35.86 33.96 35.552C33.2267 35.2587 32.6547 34.8407 32.244 34.298C31.8333 33.7407 31.628 33.066 31.628 32.274C31.628 31.614 31.7747 31.02 32.068 30.492C32.3613 29.964 32.75 29.524 33.234 29.172C33.7327 28.8053 34.2973 28.5267 34.928 28.336C35.5587 28.1453 36.2187 28.05 36.908 28.05C37.612 28.05 38.2793 28.1453 38.91 28.336C39.5553 28.5267 40.1127 28.8053 40.582 29.172C41.066 29.524 41.4473 29.964 41.726 30.492C42.0193 31.0053 42.166 31.5847 42.166 32.23C42.166 33.0367 41.9533 33.7113 41.528 34.254C41.1027 34.7967 40.538 35.222 39.834 35.53C40.758 35.8673 41.4767 36.366 41.99 37.026C42.5033 37.686 42.76 38.5 42.76 39.468C42.76 40.2453 42.5987 40.9347 42.276 41.536C41.968 42.1227 41.55 42.614 41.022 43.01C40.494 43.406 39.8707 43.7067 39.152 43.912C38.448 44.1173 37.7 44.22 36.908 44.22ZM36.908 42.02C37.744 42.02 38.4407 41.7853 38.998 41.316C39.5553 40.8467 39.834 40.172 39.834 39.292C39.834 38.852 39.7607 38.4707 39.614 38.148C39.4673 37.8107 39.262 37.532 38.998 37.312C38.734 37.0773 38.426 36.9013 38.074 36.784C37.722 36.6667 37.3407 36.608 36.93 36.608C36.534 36.608 36.1527 36.6667 35.786 36.784C35.434 36.9013 35.1187 37.0773 34.84 37.312C34.576 37.532 34.3633 37.8107 34.202 38.148C34.0407 38.4853 33.96 38.874 33.96 39.314C33.96 39.754 34.0407 40.1427 34.202 40.48C34.3633 40.8173 34.576 41.1033 34.84 41.338C35.104 41.558 35.412 41.7267 35.764 41.844C36.1307 41.9613 36.512 42.02 36.908 42.02ZM36.952 34.694C37.6707 34.694 38.2573 34.496 38.712 34.1C39.1667 33.6893 39.394 33.1247 39.394 32.406C39.394 31.7313 39.152 31.1887 38.668 30.778C38.1987 30.3673 37.612 30.162 36.908 30.162C36.204 30.162 35.61 30.3673 35.126 30.778C34.6567 31.174 34.422 31.724 34.422 32.428C34.422 32.78 34.488 33.1027 34.62 33.396C34.752 33.6747 34.9353 33.9093 35.17 34.1C35.4047 34.2907 35.676 34.4373 35.984 34.54C36.292 34.6427 36.6147 34.694 36.952 34.694Z" fill="white"/>
<defs>
<filter id="filter0_d_134_95193" x="0" y="0" width="74" height="74" filterUnits="userSpaceOnUse" color-interpolation-filters="sRGB">
<feFlood flood-opacity="0" result="BackgroundImageFix"/>
<feColorMatrix in="SourceAlpha" type="matrix" values="0 0 0 0 0 0 0 0 0 0 0 0 0 0 0 0 0 0 127 0" result="hardAlpha"/>
<feOffset/>
<feGaussianBlur stdDeviation="7.5"/>
<feComposite in2="hardAlpha" operator="out"/>
<feColorMatrix type="matrix" values="0 0 0 0 1 0 0 0 0 1 0 0 0 0 1 0 0 0 0.75 0"/>
<feBlend mode="normal" in2="BackgroundImageFix" result="effect1_dropShadow_134_95193"/>
<feBlend mode="normal" in="SourceGraphic" in2="effect1_dropShadow_134_95193" result="shape"/>
</filter>
</defs>
</svg>
