<svg width="74" height="74" viewBox="0 0 74 74" fill="none" xmlns="http://www.w3.org/2000/svg">
<g filter="url(#filter0_d_134_94805)">
<circle cx="37" cy="37" r="22" fill="#FF5C00"/>
<circle cx="37" cy="37" r="20.5" stroke="white" stroke-width="3"/>
</g>
<path d="M36.402 44.22C35.478 44.22 34.6713 44.1027 33.982 43.868C33.3073 43.6187 32.7353 43.2887 32.266 42.878C31.8113 42.4527 31.4593 41.954 31.21 41.382C30.9753 40.7953 30.836 40.1647 30.792 39.49H33.52C33.5787 39.8567 33.6667 40.194 33.784 40.502C33.9013 40.7953 34.0627 41.052 34.268 41.272C34.488 41.492 34.7667 41.6607 35.104 41.778C35.4413 41.8953 35.8667 41.954 36.38 41.954C37.2893 41.954 37.986 41.668 38.47 41.096C38.9687 40.5093 39.218 39.732 39.218 38.764C39.218 37.8107 38.9613 37.0553 38.448 36.498C37.9493 35.9407 37.26 35.662 36.38 35.662C35.5733 35.662 34.9133 35.7867 34.4 36.036C33.8867 36.2853 33.454 36.6153 33.102 37.026H31.606L31.738 28.27H41.286V30.58H33.982L33.96 34.848C34.268 34.496 34.7007 34.188 35.258 33.924C35.8153 33.66 36.512 33.528 37.348 33.528C38.052 33.528 38.6973 33.6527 39.284 33.902C39.8853 34.1367 40.3987 34.4813 40.824 34.936C41.264 35.3907 41.6013 35.948 41.836 36.608C42.0707 37.2533 42.188 37.9867 42.188 38.808C42.188 39.644 42.0413 40.3993 41.748 41.074C41.4693 41.734 41.0733 42.2987 40.56 42.768C40.0467 43.2373 39.438 43.5967 38.734 43.846C38.03 44.0953 37.2527 44.22 36.402 44.22Z" fill="white"/>
<defs>
<filter id="filter0_d_134_94805" x="0" y="0" width="74" height="74" filterUnits="userSpaceOnUse" color-interpolation-filters="sRGB">
<feFlood flood-opacity="0" result="BackgroundImageFix"/>
<feColorMatrix in="SourceAlpha" type="matrix" values="0 0 0 0 0 0 0 0 0 0 0 0 0 0 0 0 0 0 127 0" result="hardAlpha"/>
<feOffset/>
<feGaussianBlur stdDeviation="7.5"/>
<feComposite in2="hardAlpha" operator="out"/>
<feColorMatrix type="matrix" values="0 0 0 0 1 0 0 0 0 1 0 0 0 0 1 0 0 0 0.75 0"/>
<feBlend mode="normal" in2="BackgroundImageFix" result="effect1_dropShadow_134_94805"/>
<feBlend mode="normal" in="SourceGraphic" in2="effect1_dropShadow_134_94805" result="shape"/>
</filter>
</defs>
</svg>
