<svg width="74" height="74" viewBox="0 0 74 74" fill="none" xmlns="http://www.w3.org/2000/svg">
<g filter="url(#filter0_d_134_94799)">
<circle cx="37" cy="37" r="22" fill="#FF5C00"/>
<circle cx="37" cy="37" r="20.5" stroke="white" stroke-width="3"/>
</g>
<path d="M36.688 44.22C35.7493 44.22 34.9207 44.0953 34.202 43.846C33.4833 43.5967 32.8747 43.252 32.376 42.812C31.8773 42.3573 31.4887 41.822 31.21 41.206C30.946 40.5753 30.7993 39.886 30.77 39.138H33.432C33.5053 39.9593 33.7913 40.6487 34.29 41.206C34.7887 41.7487 35.566 42.02 36.622 42.02C37.6487 42.02 38.404 41.7927 38.888 41.338C39.372 40.8833 39.614 40.26 39.614 39.468C39.614 37.752 38.668 36.894 36.776 36.894H35.566V34.804H36.688C37.5973 34.804 38.2573 34.606 38.668 34.21C39.0933 33.814 39.306 33.242 39.306 32.494C39.306 31.8487 39.1007 31.3207 38.69 30.91C38.294 30.4847 37.6853 30.272 36.864 30.272C36.028 30.272 35.3533 30.5067 34.84 30.976C34.3267 31.4453 34.026 32.076 33.938 32.868H31.342C31.386 32.1933 31.54 31.5627 31.804 30.976C32.068 30.3747 32.4347 29.8613 32.904 29.436C33.388 29.0107 33.9673 28.6733 34.642 28.424C35.3167 28.1747 36.072 28.05 36.908 28.05C37.7293 28.05 38.4627 28.16 39.108 28.38C39.7533 28.6 40.296 28.9007 40.736 29.282C41.176 29.6633 41.5133 30.1107 41.748 30.624C41.9827 31.1373 42.1 31.6873 42.1 32.274C42.1 33.1687 41.8653 33.8947 41.396 34.452C40.9267 34.9947 40.3107 35.4127 39.548 35.706C40.472 35.9113 41.2053 36.3367 41.748 36.982C42.3053 37.6127 42.584 38.456 42.584 39.512C42.584 40.2453 42.4447 40.9053 42.166 41.492C41.8873 42.064 41.4913 42.5553 40.978 42.966C40.4793 43.362 39.8633 43.67 39.13 43.89C38.3967 44.11 37.5827 44.22 36.688 44.22Z" fill="white"/>
<defs>
<filter id="filter0_d_134_94799" x="0" y="0" width="74" height="74" filterUnits="userSpaceOnUse" color-interpolation-filters="sRGB">
<feFlood flood-opacity="0" result="BackgroundImageFix"/>
<feColorMatrix in="SourceAlpha" type="matrix" values="0 0 0 0 0 0 0 0 0 0 0 0 0 0 0 0 0 0 127 0" result="hardAlpha"/>
<feOffset/>
<feGaussianBlur stdDeviation="7.5"/>
<feComposite in2="hardAlpha" operator="out"/>
<feColorMatrix type="matrix" values="0 0 0 0 1 0 0 0 0 1 0 0 0 0 1 0 0 0 0.75 0"/>
<feBlend mode="normal" in2="BackgroundImageFix" result="effect1_dropShadow_134_94799"/>
<feBlend mode="normal" in="SourceGraphic" in2="effect1_dropShadow_134_94799" result="shape"/>
</filter>
</defs>
</svg>
