<svg width="59.69vw" height="33.23vw" viewBox="0 0 1146 638" fill="none" xmlns="http://www.w3.org/2000/svg">
<path d="M319.57 108.55L398.69 213.93C404.24 221.33 412.54 226.17 421.71 227.38L434.21 229.03C447.44 230.77 460.55 225 468.19 214.06L507.12 158.37" stroke="#3A78FF" stroke-width="2" stroke-miterlimit="10" stroke-dasharray="2 2"/>
<path d="M316.1 111.44C314.6 109.45 315.01 106.62 317 105.12C318.99 103.62 321.82 104.03 323.32 106.02C324.82 108.01 324.41 110.84 322.42 112.34C320.43 113.84 317.6 113.43 316.1 111.44Z" fill="#3A78FF"/>
<path d="M1140.92 4.53L869.81 162.41C821.63 190.47 766.88 205.25 711.13 205.25H522.36C509.82 205.25 499.26 195.87 497.77 183.42L496.58 173.47" stroke="#3A78FF" stroke-width="2" stroke-miterlimit="10" stroke-dasharray="2 2"/>
<path d="M1138.46 0.749986C1140.61 -0.500014 1143.38 0.229991 1144.63 2.37999C1145.88 4.52999 1145.15 7.29997 1143 8.54997C1140.85 9.79997 1138.08 9.07 1136.83 6.92C1135.58 4.77 1136.3 1.99999 1138.46 0.749986Z" fill="#3A78FF"/>
<path d="M226.93 479.38L215.45 439.95C210.95 424.51 214.48 407.85 224.83 395.56L349.94 246.97C359.88 235.17 374.62 228.48 390.05 228.79L436.81 229.71" stroke="#3A78FF" stroke-width="2" stroke-miterlimit="10" stroke-dasharray="2 2"/>
<path d="M231.2 477.91C231.9 480.3 230.52 482.81 228.13 483.5C225.74 484.19 223.23 482.82 222.54 480.43C221.84 478.04 223.22 475.53 225.61 474.84C227.99 474.14 230.5 475.51 231.2 477.91Z" fill="#3A78FF"/>
<path d="M230.38 487.06L258.95 488.61C269.02 489.16 274.54 500.58 268.71 508.81L180.55 633.19" stroke="#3A78FF" stroke-width="2" stroke-miterlimit="10" stroke-dasharray="2 2"/>
<path d="M176.99 630.4C175.55 632.43 176.03 635.25 178.06 636.69C180.09 638.13 182.91 637.65 184.35 635.62C185.79 633.59 185.31 630.77 183.28 629.33C181.25 627.89 178.43 628.37 176.99 630.4Z" fill="#3A78FF"/>
<path d="M-94.75 389.75L256.12 225.38C271.67 218.1 288.89 215.11 305.98 216.75L440.46 229.59L335.4 226.46C314.6 225.84 294.1 231.46 276.52 242.58L-131.88 501.13" stroke="#3A78FF" stroke-width="2" stroke-miterlimit="10" stroke-dasharray="2 2"/>
</svg>
