<svg id="path_5" width="4.32vw" height="3.28vw" viewBox="0 0 83 63" fill="none" xmlns="http://www.w3.org/2000/svg">
<!-- <path d="M5.06006 11.656C5.7854 11.656 6.35073 11.4107 6.75606 10.92C7.1614 10.4187 7.36406 9.736 7.36406 8.872V8.76C7.36406 7.896 7.1614 7.21867 6.75606 6.728C6.35073 6.22667 5.7854 5.976 5.06006 5.976C4.33473 5.976 3.76406 6.22133 3.34806 6.712C2.94273 7.20267 2.74006 7.88 2.74006 8.744V8.872C2.74006 9.736 2.94273 10.4187 3.34806 10.92C3.7534 11.4107 4.32406 11.656 5.06006 11.656ZM5.04406 13.16C4.4254 13.16 3.85473 13.0587 3.33206 12.856C2.8094 12.6533 2.35606 12.3653 1.97206 11.992C1.58806 11.6187 1.2894 11.1707 1.07606 10.648C0.862729 10.1253 0.756063 9.544 0.756063 8.904V8.776C0.756063 8.12533 0.862729 7.53867 1.07606 7.016C1.30006 6.48267 1.60406 6.02933 1.98806 5.656C2.37206 5.272 2.8254 4.97867 3.34806 4.776C3.87073 4.56267 4.4414 4.456 5.06006 4.456C5.66806 4.456 6.2334 4.55733 6.75606 4.76C7.27873 4.96267 7.73206 5.256 8.11606 5.64C8.50006 6.01333 8.79873 6.46133 9.01206 6.984C9.23606 7.50667 9.34806 8.088 9.34806 8.728V8.856C9.34806 9.50667 9.23606 10.0987 9.01206 10.632C8.79873 11.1547 8.50006 11.608 8.11606 11.992C7.73206 12.3653 7.27873 12.6533 6.75606 12.856C6.2334 13.0587 5.66273 13.16 5.04406 13.16ZM11.8431 13.112C11.4911 13.112 11.1924 12.9947 10.9471 12.76C10.7017 12.5147 10.5791 12.216 10.5791 11.864C10.5791 11.512 10.7017 11.2133 10.9471 10.968C11.1924 10.7227 11.4911 10.6 11.8431 10.6C12.2057 10.6 12.5097 10.7227 12.7551 10.968C13.0004 11.2133 13.1231 11.512 13.1231 11.864C13.1231 12.216 13.0004 12.5147 12.7551 12.76C12.5097 12.9947 12.2057 13.112 11.8431 13.112ZM19.4136 1.56H23.0936C23.7336 1.56 24.3149 1.63467 24.8376 1.784C25.3602 1.92267 25.8029 2.14133 26.1656 2.44C26.5389 2.728 26.8269 3.096 27.0296 3.544C27.2322 3.98133 27.3336 4.49867 27.3336 5.096V5.16C27.3336 5.768 27.2269 6.29067 27.0136 6.728C26.8109 7.16533 26.5229 7.528 26.1496 7.816C25.7869 8.09333 25.3442 8.30133 24.8216 8.44C24.3096 8.57867 23.7496 8.648 23.1416 8.648H21.5416V13H19.4136V1.56ZM23.0936 7.112C23.7976 7.112 24.3309 6.94667 24.6936 6.616C25.0669 6.28533 25.2536 5.8 25.2536 5.16V5.096C25.2536 4.41333 25.0616 3.928 24.6776 3.64C24.3042 3.352 23.7762 3.208 23.0936 3.208H21.5416V7.112H23.0936ZM31.4516 12.152L28.1396 4.632H30.2356L32.4596 10.024L34.5076 4.632H36.3956L31.8356 15.864H29.9316L31.4516 12.152ZM41.1988 13.16C40.6015 13.16 40.0415 13.064 39.5188 12.872C39.0068 12.68 38.5588 12.4027 38.1748 12.04C37.8015 11.6773 37.5081 11.2347 37.2948 10.712C37.0815 10.1893 36.9748 9.592 36.9748 8.92V8.792C36.9748 8.13067 37.0815 7.53333 37.2948 7C37.5188 6.46667 37.8228 6.01333 38.2068 5.64C38.5908 5.256 39.0388 4.96267 39.5508 4.76C40.0628 4.55733 40.6121 4.456 41.1988 4.456C41.6575 4.456 42.1055 4.51467 42.5428 4.632C42.9801 4.73867 43.3695 4.91467 43.7108 5.16C44.0628 5.40533 44.3561 5.73067 44.5908 6.136C44.8255 6.53067 44.9695 7.016 45.0228 7.592H43.1508C43.0655 7.02667 42.8521 6.62133 42.5108 6.376C42.1695 6.13067 41.7428 6.008 41.2308 6.008C40.9001 6.008 40.5961 6.072 40.3188 6.2C40.0415 6.31733 39.8015 6.49867 39.5988 6.744C39.3961 6.97867 39.2361 7.26667 39.1188 7.608C39.0121 7.94933 38.9588 8.33333 38.9588 8.76V8.888C38.9588 9.80533 39.1668 10.4987 39.5828 10.968C39.9988 11.4373 40.5641 11.672 41.2788 11.672C41.5348 11.672 41.7748 11.6347 41.9988 11.56C42.2335 11.4853 42.4415 11.3733 42.6228 11.224C42.8041 11.0747 42.9535 10.888 43.0708 10.664C43.1881 10.44 43.2628 10.1787 43.2948 9.88H45.0708C45.0388 10.36 44.9215 10.8027 44.7188 11.208C44.5268 11.6027 44.2655 11.9493 43.9348 12.248C43.6041 12.536 43.2041 12.76 42.7348 12.92C42.2761 13.08 41.7641 13.16 41.1988 13.16ZM50.4019 13.16C49.8046 13.16 49.2446 13.064 48.7219 12.872C48.2099 12.68 47.7619 12.4027 47.3779 12.04C47.0046 11.6773 46.7113 11.2347 46.4979 10.712C46.2846 10.1893 46.1779 9.592 46.1779 8.92V8.792C46.1779 8.13067 46.2846 7.53333 46.4979 7C46.7219 6.46667 47.0259 6.01333 47.4099 5.64C47.7939 5.256 48.2419 4.96267 48.7539 4.76C49.2659 4.55733 49.8153 4.456 50.4019 4.456C50.8606 4.456 51.3086 4.51467 51.7459 4.632C52.1833 4.73867 52.5726 4.91467 52.9139 5.16C53.2659 5.40533 53.5593 5.73067 53.7939 6.136C54.0286 6.53067 54.1726 7.016 54.2259 7.592H52.3539C52.2686 7.02667 52.0553 6.62133 51.7139 6.376C51.3726 6.13067 50.9459 6.008 50.4339 6.008C50.1033 6.008 49.7993 6.072 49.5219 6.2C49.2446 6.31733 49.0046 6.49867 48.8019 6.744C48.5993 6.97867 48.4393 7.26667 48.3219 7.608C48.2153 7.94933 48.1619 8.33333 48.1619 8.76V8.888C48.1619 9.80533 48.3699 10.4987 48.7859 10.968C49.2019 11.4373 49.7673 11.672 50.4819 11.672C50.7379 11.672 50.9779 11.6347 51.2019 11.56C51.4366 11.4853 51.6446 11.3733 51.8259 11.224C52.0073 11.0747 52.1566 10.888 52.2739 10.664C52.3913 10.44 52.4659 10.1787 52.4979 9.88H54.2739C54.2419 10.36 54.1246 10.8027 53.9219 11.208C53.7299 11.6027 53.4686 11.9493 53.1379 12.248C52.8073 12.536 52.4073 12.76 51.9379 12.92C51.4793 13.08 50.9673 13.16 50.4019 13.16ZM57.8771 8.904V13H55.9411V4.632H57.8771V8.344L60.8691 4.632H62.9811L59.7331 8.504L63.2531 13H61.0131L57.8771 8.904ZM64.5817 13V4.632H66.5177V10.552L70.1337 4.632H72.0537V13H70.1337V7.08L66.5177 13H64.5817ZM77.9808 3.288C77.3088 3.288 76.7648 3.08533 76.3488 2.68C75.9328 2.264 75.7035 1.72 75.6608 1.048H77.1168C77.1381 1.32533 77.2128 1.57067 77.3408 1.784C77.4795 1.98667 77.6928 2.088 77.9808 2.088C78.2795 2.088 78.4981 1.98667 78.6368 1.784C78.7861 1.57067 78.8768 1.32533 78.9088 1.048H80.3488C80.3061 1.72 80.0661 2.264 79.6288 2.68C79.2021 3.08533 78.6528 3.288 77.9808 3.288ZM74.2848 13V4.632H76.2208V10.552L79.8368 4.632H81.7568V13H79.8368V7.08L76.2208 13H74.2848Z" fill="white"/> -->
<circle cx="46.5" cy="59.5" r="3.5" fill="white"/>
<line x1="46.5" y1="23" x2="46.5" y2="60" stroke="white"/>
</svg>
